<?xml version='1.0' encoding='utf-8'?>
<svg xmlns="http://www.w3.org/2000/svg" width="198.703mm" height="198.703mm" version="1.1" style=shape-rendering:geometricPrecision; text-rendering:geometricPrecision; image-rendering:optimizeQuality; fill-rule:evenodd; clip-rule:evenodd" viewBox="0 0 19870 19870"> <defs> <style type="text/css">  .fil0 {fill:#630F0F} .fil2 {fill:#DAA53B} .fil1 {fill:#DAA53B;fill-rule:nonzero}  </style> </defs> <g id="Layer_x0020_1"> <metadata id="CorelCorpID_0Corel-Layer"/> <g id="_804538528"> <polygon class="fil0" points="0,0 19870,0 19870,19870 0,19870 "/> <path class="fil1" d="M258 218l19355 0 39 0 0 40 0 19355 0 39 -39 0 -19355 0 -40 0 0 -39 0 -19355 0 -40 40 0zm19315 79l-19276 0 0 19276 19276 0 0 -19276z"/> <path class="fil2" d="M759 759c-2,24 -7,49 -16,72 -7,16 -16,32 -27,47 -14,19 -31,38 -49,55 -47,45 -104,56 -156,43 -66,-16 -123,-72 -136,-146 -5,-26 -3,-53 6,-79 6,-15 14,-30 25,-43 11,-13 25,-25 40,-33 14,-8 30,-13 47,-15 -19,-16 -36,-35 -50,-56 -14,-20 -26,-42 -34,-65 -8,-21 -14,-46 -13,-69 1,-20 6,-39 21,-54 14,-14 34,-20 53,-20 24,-1 48,5 70,13 23,8 44,19 65,33 20,15 39,31 56,50 1,-16 7,-32 15,-46 8,-16 19,-29 32,-40 13,-11 28,-20 44,-25 25,-10 52,-11 79,-7 73,14 129,70 146,137 12,51 1,108 -43,156 -17,18 -36,35 -56,49 -15,10 -30,20 -47,26 -23,10 -47,15 -72,17zm-309 -310c-5,5 -7,12 -7,22 -1,17 4,36 10,52 7,20 16,38 28,55 12,17 27,33 43,47 17,15 36,29 55,40 20,12 41,22 63,30 22,8 45,12 68,15 -2,-24 -7,-46 -15,-69 -8,-21 -18,-42 -30,-62 -11,-20 -24,-39 -39,-56 -14,-16 -30,-30 -48,-42 -17,-12 -35,-22 -54,-28 -16,-6 -35,-11 -52,-11 -10,1 -18,3 -22,7zm307 262c-2,-25 -6,-48 -13,-72 11,5 23,9 35,10 13,1 26,1 39,-2 12,-3 24,-9 35,-16 10,-7 19,-16 26,-26 7,-10 11,-22 14,-34 2,-12 2,-24 0,-36 -2,-10 -5,-20 -10,-29 -5,-9 -11,-18 -18,-25 -6,-6 -13,-11 -19,-15 -7,-4 -15,-7 -23,-9 -6,-2 -14,-2 -20,-1 -8,1 -15,3 -21,7 -7,5 -12,11 -15,18 -4,8 -5,16 -3,24 1,8 5,16 10,22 5,6 11,12 19,15 7,4 15,5 23,4 8,0 16,-3 23,-8 2,-1 4,-3 5,-5 2,3 2,6 3,10 1,6 1,13 0,19 -1,6 -4,12 -7,17 -3,6 -8,10 -13,14 -6,4 -13,6 -20,8 -8,2 -15,2 -23,2 -7,-1 -15,-3 -21,-7 -8,-3 -15,-9 -21,-14 -7,-8 -13,-16 -19,-24 -6,-10 -11,-21 -14,-32 -2,-9 -3,-18 -2,-28 1,-10 5,-21 10,-30 5,-10 13,-19 21,-27 9,-7 19,-13 30,-17 11,-4 23,-6 35,-6 12,0 23,1 34,5 12,3 23,9 33,15 11,8 20,17 29,27 8,9 15,20 20,32 5,12 9,25 10,38 1,13 1,25 -2,38 -3,12 -8,25 -14,36 -7,13 -17,26 -27,37 -11,12 -23,23 -36,32 -11,9 -23,16 -37,21 -12,5 -25,9 -39,10 -5,1 -11,2 -17,2zm-45 46c-25,-3 -49,-7 -73,-14 6,11 9,23 10,36 2,12 1,26 -2,38 -3,13 -8,25 -15,35 -7,11 -16,20 -27,27 -10,6 -21,11 -33,13 -12,3 -25,3 -37,1 -10,-2 -20,-5 -29,-10 -9,-5 -17,-11 -25,-19 -5,-6 -10,-12 -15,-19 -4,-7 -7,-14 -9,-22 -1,-7 -2,-14 -1,-21 1,-7 4,-14 8,-20 4,-7 10,-12 17,-16 8,-3 16,-4 24,-3 8,2 16,6 22,11 7,5 12,11 16,18 3,7 4,15 4,23 -1,8 -4,17 -8,23 -2,2 -4,4 -6,6 4,1 7,2 10,3 7,1 13,1 20,-1 6,-1 12,-3 17,-6 5,-4 9,-9 13,-14 4,-6 7,-13 9,-20 1,-7 2,-15 1,-22 -1,-8 -3,-15 -6,-22 -4,-7 -9,-14 -15,-20 -7,-8 -15,-14 -24,-19 -10,-6 -20,-11 -31,-14 -9,-2 -19,-3 -28,-3 -11,2 -21,5 -31,10 -10,6 -19,13 -26,22 -8,9 -13,19 -17,30 -4,11 -7,23 -7,35 0,11 2,23 5,34 4,11 9,22 16,32 7,11 16,21 26,29 10,8 21,15 33,21 12,5 24,8 38,10 12,1 25,0 37,-2 13,-3 25,-8 36,-14 14,-8 26,-17 38,-28 11,-10 22,-22 32,-35 8,-11 15,-24 21,-37 5,-13 8,-26 10,-39 1,-6 1,-12 2,-17zm18399 2c2,24 7,49 17,72 6,16 16,32 26,47 14,19 31,38 49,55 48,45 105,56 156,43 66,-16 123,-72 137,-146 4,-26 3,-53 -7,-79 -5,-15 -14,-30 -25,-43 -11,-13 -25,-25 -40,-33 -14,-8 -30,-13 -46,-15 18,-16 35,-35 50,-56 13,-20 25,-42 33,-65 8,-21 14,-46 13,-69 0,-20 -6,-39 -20,-54 -15,-14 -34,-20 -54,-20 -23,-1 -48,5 -69,13 -23,8 -45,19 -65,33 -21,15 -40,31 -56,50 -2,-16 -8,-32 -15,-46 -9,-16 -20,-29 -33,-40 -13,-11 -28,-20 -43,-25 -26,-10 -53,-11 -79,-7 -74,14 -130,70 -146,137 -13,51 -2,108 43,156 16,18 36,34 55,49 15,10 31,20 47,26 23,10 47,15 72,17zm309 -310c5,5 7,12 8,22 0,17 -5,36 -11,52 -7,20 -16,38 -28,55 -12,17 -26,33 -43,47 -16,15 -35,29 -55,40 -20,12 -41,22 -62,30 -23,8 -45,12 -69,15 3,-24 7,-46 15,-69 8,-21 18,-42 30,-62 11,-20 24,-39 40,-56 14,-16 30,-30 47,-42 17,-12 35,-22 55,-28 16,-6 34,-11 52,-11 10,1 17,3 21,7zm-307 262c3,-25 6,-48 14,-72 -11,5 -23,9 -36,10 -13,1 -26,1 -38,-2 -13,-3 -25,-9 -35,-16 -11,-7 -20,-16 -27,-26 -6,-10 -11,-22 -13,-34 -3,-12 -3,-24 -1,-36 2,-10 5,-20 10,-29 5,-9 11,-18 19,-25 5,-6 12,-11 19,-15 7,-4 14,-7 22,-9 7,-2 14,-2 21,-1 7,1 14,3 20,7 7,5 12,11 16,18 3,8 4,16 3,24 -2,8 -6,16 -11,22 -5,6 -11,12 -18,15 -7,4 -16,5 -23,4 -9,0 -17,-3 -23,-8 -2,-1 -4,-3 -6,-5 -1,3 -2,6 -3,10 -1,6 -1,13 1,19 1,6 3,12 6,17 4,6 9,10 14,14 6,4 13,6 20,8 7,2 15,2 22,2 8,-1 15,-3 22,-7 7,-3 14,-9 20,-14 7,-8 14,-16 19,-24 6,-10 11,-21 14,-32 2,-9 3,-18 2,-28 -1,-10 -4,-21 -9,-30 -6,-10 -13,-19 -22,-27 -9,-7 -19,-13 -30,-17 -11,-4 -23,-6 -35,-6 -12,0 -23,1 -34,5 -12,3 -23,9 -33,15 -10,8 -20,17 -28,27 -8,9 -15,20 -21,32 -5,12 -8,25 -10,38 -1,13 -1,25 2,38 3,12 8,25 14,36 8,13 17,26 28,37 10,12 22,23 35,32 11,9 24,16 37,21 12,5 26,9 39,10 6,1 12,2 17,2zm46 46c25,-3 48,-7 72,-14 -5,11 -9,23 -10,36 -1,12 -1,26 2,38 3,13 8,25 16,35 7,11 16,20 26,27 10,6 22,11 34,13 11,3 24,3 36,1 10,-2 20,-5 29,-10 9,-5 18,-11 25,-19 6,-6 11,-12 15,-19 4,-7 7,-14 9,-22 2,-7 2,-14 1,-21 -1,-7 -3,-14 -7,-20 -5,-7 -11,-12 -18,-16 -8,-3 -16,-4 -24,-3 -8,2 -16,6 -22,11 -6,5 -12,11 -15,18 -4,7 -5,15 -4,23 0,8 3,17 8,23 1,2 3,4 5,6 -3,1 -7,2 -10,3 -6,1 -13,1 -19,-1 -6,-1 -12,-3 -17,-6 -6,-4 -10,-9 -14,-14 -4,-6 -7,-13 -8,-20 -2,-7 -2,-15 -2,-22 1,-8 3,-15 7,-22 3,-7 9,-14 14,-20 7,-8 16,-14 24,-19 10,-6 21,-11 32,-14 9,-2 18,-3 28,-3 10,2 21,5 30,10 10,6 19,13 27,22 7,9 13,19 17,30 4,11 6,23 6,35 0,11 -1,23 -5,34 -3,11 -9,22 -15,32 -8,11 -17,21 -27,29 -10,8 -21,15 -32,21 -12,5 -25,8 -38,10 -13,1 -26,0 -38,-2 -13,-3 -25,-8 -36,-14 -13,-8 -26,-17 -37,-28 -12,-10 -23,-22 -32,-35 -9,-11 -16,-24 -21,-37 -5,-13 -9,-26 -11,-39 0,-6 -1,-12 -1,-17zm-18400 18355c-2,-25 -7,-49 -16,-73 -7,-16 -16,-32 -27,-46 -14,-20 -31,-39 -49,-56 -47,-45 -104,-56 -156,-43 -66,16 -123,72 -136,146 -5,27 -3,54 6,79 6,16 14,31 25,44 11,13 25,24 40,32 14,8 30,13 47,15 -19,17 -36,36 -50,56 -14,20 -26,42 -34,65 -8,22 -14,46 -13,69 1,20 6,40 21,54 14,14 34,20 53,21 24,0 48,-5 70,-13 23,-9 44,-20 65,-34 20,-14 39,-31 56,-50 1,16 7,32 15,47 8,15 19,29 32,40 13,11 28,19 44,25 25,9 52,11 79,6 73,-13 129,-70 146,-137 12,-51 1,-108 -43,-156 -17,-17 -36,-34 -56,-49 -15,-10 -30,-19 -47,-26 -23,-10 -47,-15 -72,-16zm-309 309c-5,-5 -7,-12 -7,-22 -1,-17 4,-36 10,-52 7,-19 16,-37 28,-54 12,-18 27,-34 43,-48 17,-15 36,-28 55,-40 20,-11 41,-22 63,-29 22,-8 45,-13 68,-15 -2,23 -7,45 -15,68 -8,22 -18,43 -30,63 -11,19 -24,38 -39,55 -14,16 -30,30 -48,43 -17,11 -35,21 -54,28 -16,6 -35,10 -52,10 -10,0 -18,-2 -22,-7zm307 -262c-2,25 -6,49 -13,72 11,-5 23,-8 35,-10 13,-1 26,0 39,3 12,3 24,8 35,15 10,7 19,16 26,26 7,11 11,22 14,34 2,12 2,24 0,36 -2,11 -5,20 -10,29 -5,10 -11,18 -18,25 -6,6 -13,11 -19,15 -7,4 -15,7 -23,9 -6,2 -14,3 -20,2 -8,-1 -15,-4 -21,-8 -7,-4 -12,-10 -15,-18 -4,-7 -5,-15 -3,-24 1,-8 5,-15 10,-22 5,-6 11,-11 19,-15 7,-3 15,-5 23,-4 8,1 16,3 23,8 2,2 4,3 5,5 2,-3 2,-6 3,-10 1,-6 1,-13 0,-19 -1,-6 -4,-12 -7,-17 -3,-5 -8,-10 -13,-13 -6,-4 -13,-7 -20,-9 -8,-2 -15,-2 -23,-1 -7,1 -15,3 -21,6 -8,4 -15,9 -21,15 -7,7 -13,15 -19,24 -6,10 -11,20 -14,31 -2,9 -3,19 -2,28 1,11 5,21 10,30 5,10 13,20 21,27 9,7 19,13 30,17 11,4 23,6 35,7 12,0 23,-2 34,-5 12,-4 23,-9 33,-16 11,-7 20,-16 29,-26 8,-10 15,-21 20,-33 5,-12 9,-25 10,-38 1,-12 1,-25 -2,-37 -3,-13 -8,-25 -14,-37 -7,-13 -17,-26 -27,-37 -11,-12 -23,-22 -36,-32 -11,-8 -23,-15 -37,-21 -12,-5 -25,-8 -39,-10 -5,-1 -11,-1 -17,-2zm-45 -45c-25,2 -49,6 -73,13 6,-11 9,-23 10,-35 2,-13 1,-26 -2,-39 -3,-12 -8,-24 -15,-35 -7,-10 -16,-19 -27,-26 -10,-7 -21,-11 -33,-14 -12,-2 -25,-2 -37,0 -10,1 -20,5 -29,10 -9,5 -17,11 -25,18 -5,6 -10,12 -15,19 -4,7 -7,15 -9,22 -1,7 -2,14 -1,21 1,8 4,15 8,21 4,6 10,12 17,15 8,4 16,5 24,3 8,-1 16,-5 22,-10 7,-5 12,-12 16,-19 3,-7 4,-15 4,-23 -1,-8 -4,-16 -8,-23 -2,-2 -4,-4 -6,-5 4,-2 7,-3 10,-3 7,-1 13,-1 20,0 6,1 12,3 17,7 5,3 9,8 13,13 4,6 7,13 9,20 1,7 2,15 1,23 -1,7 -3,14 -6,21 -4,8 -9,14 -15,21 -7,7 -15,13 -24,18 -10,6 -20,11 -31,14 -9,3 -19,4 -28,3 -11,-1 -21,-5 -31,-10 -10,-5 -19,-13 -26,-22 -8,-8 -13,-18 -17,-29 -4,-11 -7,-24 -7,-36 0,-11 2,-23 5,-34 4,-11 9,-22 16,-32 7,-11 16,-20 26,-29 10,-8 21,-15 33,-20 12,-5 24,-9 38,-10 12,-2 25,-1 37,2 13,2 25,7 36,14 14,7 26,17 38,27 11,11 22,23 32,35 8,12 15,24 21,37 5,13 8,26 10,39 1,6 1,12 2,18zm18399 -2c2,-25 7,-49 17,-73 6,-16 16,-32 26,-46 14,-20 31,-39 49,-56 48,-45 105,-56 156,-43 66,16 123,72 137,146 4,27 3,54 -7,79 -5,16 -14,31 -25,44 -11,13 -25,24 -40,32 -14,8 -30,13 -46,15 18,17 35,36 50,56 13,20 25,42 33,65 8,22 14,46 13,69 0,20 -6,40 -20,54 -15,14 -34,20 -54,21 -23,0 -48,-5 -69,-13 -23,-9 -45,-20 -65,-34 -21,-14 -40,-31 -56,-50 -2,16 -8,32 -15,47 -9,15 -20,29 -33,40 -13,11 -28,19 -43,25 -26,9 -53,11 -79,6 -74,-13 -130,-70 -146,-137 -13,-51 -2,-108 43,-156 16,-17 36,-34 55,-49 15,-10 31,-19 47,-26 23,-10 47,-15 72,-16zm309 309c5,-5 7,-12 8,-22 0,-17 -5,-36 -11,-52 -7,-19 -16,-37 -28,-54 -12,-18 -26,-34 -43,-48 -16,-15 -35,-28 -55,-40 -20,-11 -41,-22 -62,-29 -23,-8 -45,-13 -69,-15 3,23 7,45 15,68 8,22 18,43 30,63 11,19 24,38 40,55 14,16 30,30 47,43 17,11 35,21 55,28 16,6 34,10 52,10 10,0 17,-2 21,-7zm-307 -262c3,25 6,49 14,72 -11,-5 -23,-8 -36,-10 -13,-1 -26,0 -38,3 -13,3 -25,8 -35,15 -11,7 -20,16 -27,26 -6,11 -11,22 -13,34 -3,12 -3,24 -1,36 2,11 5,20 10,29 5,10 11,18 19,25 5,6 12,11 19,15 7,4 14,7 22,9 7,2 14,3 21,2 7,-1 14,-4 20,-8 7,-4 12,-10 16,-18 3,-7 4,-15 3,-24 -2,-8 -6,-15 -11,-22 -5,-6 -11,-11 -18,-15 -7,-3 -16,-5 -23,-4 -9,1 -17,3 -23,8 -2,2 -4,3 -6,5 -1,-3 -2,-6 -3,-10 -1,-6 -1,-13 1,-19 1,-6 3,-12 6,-17 4,-5 9,-10 14,-13 6,-4 13,-7 20,-9 7,-2 15,-2 22,-1 8,1 15,3 22,6 7,4 14,9 20,15 7,7 14,15 19,24 6,10 11,20 14,31 2,9 3,19 2,28 -1,11 -4,21 -9,30 -6,10 -13,20 -22,27 -9,7 -19,13 -30,17 -11,4 -23,6 -35,7 -12,0 -23,-2 -34,-5 -12,-4 -23,-9 -33,-16 -10,-7 -20,-16 -28,-26 -8,-10 -15,-21 -21,-33 -5,-12 -8,-25 -10,-38 -1,-12 -1,-25 2,-37 3,-13 8,-25 14,-37 8,-13 17,-26 28,-37 10,-12 22,-22 35,-32 11,-8 24,-15 37,-21 12,-5 26,-8 39,-10 6,-1 12,-1 17,-2zm46 -45c25,2 48,6 72,13 -5,-11 -9,-23 -10,-35 -1,-13 -1,-26 2,-39 3,-12 8,-24 16,-35 7,-10 16,-19 26,-26 10,-7 22,-11 34,-14 11,-2 24,-2 36,0 10,1 20,5 29,10 9,5 18,11 25,18 6,6 11,12 15,19 4,7 7,15 9,22 2,7 2,14 1,21 -1,8 -3,15 -7,21 -5,6 -11,12 -18,15 -8,4 -16,5 -24,3 -8,-1 -16,-5 -22,-10 -6,-5 -12,-12 -15,-19 -4,-7 -5,-15 -4,-23 0,-8 3,-16 8,-23 1,-2 3,-4 5,-5 -3,-2 -7,-3 -10,-3 -6,-1 -13,-1 -19,0 -6,1 -12,3 -17,7 -6,3 -10,8 -14,13 -4,6 -7,13 -8,20 -2,7 -2,15 -2,23 1,7 3,14 7,21 3,8 9,14 14,21 7,7 16,13 24,18 10,6 21,11 32,14 9,3 18,4 28,3 10,-1 21,-5 30,-10 10,-5 19,-13 27,-22 7,-8 13,-18 17,-29 4,-11 6,-24 6,-36 0,-11 -1,-23 -5,-34 -3,-11 -9,-22 -15,-32 -8,-11 -17,-20 -27,-29 -10,-8 -21,-15 -32,-20 -12,-5 -25,-9 -38,-10 -13,-2 -26,-1 -38,2 -13,2 -25,7 -36,14 -13,7 -26,17 -37,27 -12,11 -23,23 -32,35 -9,12 -16,24 -21,37 -5,13 -9,26 -11,39 0,6 -1,12 -1,18z"/> <path class="fil2" d="M2223 6934l1781 0c9,30 21,59 33,88l-1880 0 66 -88zm1933 0l2861 0 -67 88 -2757 0c-16,-28 -28,-58 -37,-88zm13491 0l-1780 0c-10,30 -21,59 -34,88l1881 0 -67 -88zm-1933 0l-2860 0 66 88 2758 0c15,-28 27,-58 36,-88zm-11451 -550c50,-53 114,-102 192,-143 80,-42 175,-75 275,-101 112,-28 230,-45 341,-53 105,-8 205,-6 301,3 32,3 64,7 95,12l1 -8c0,-45 5,-90 14,-134 4,-22 10,-45 17,-66l-29 -5c-105,-15 -211,-24 -310,-25 -93,-1 -180,4 -260,15 -89,12 -170,31 -244,53 -70,22 -132,47 -189,74 -56,27 -106,56 -149,85 -45,29 -83,59 -117,91 -35,33 -65,69 -93,111 -27,41 -52,88 -71,137 -20,48 -34,98 -42,146 -32,190 41,467 174,601 36,36 81,69 132,96 47,26 100,46 157,58 54,12 112,17 168,18 66,0 129,-5 179,-14 43,-7 77,-17 104,-28 37,-15 61,-32 74,-48 10,-12 15,-25 16,-37 5,-39 -31,-71 -71,-64 -31,5 -58,35 -70,64 -2,4 -4,9 -5,13 -17,5 -38,10 -63,15 -46,8 -104,13 -163,12 -50,0 -102,-5 -150,-15 -50,-11 -95,-29 -135,-50 -43,-23 -81,-51 -111,-82 -95,-95 -129,-242 -123,-373 2,-56 12,-115 36,-174 24,-63 64,-126 119,-184zm10235 -294c97,-9 196,-11 302,-3 110,8 228,25 340,53 101,26 196,59 275,101 78,41 142,90 193,143 55,58 94,121 119,184 23,59 34,118 36,174 5,131 -28,278 -123,373 -31,31 -68,59 -111,82 -40,21 -86,39 -135,50 -49,10 -100,15 -150,15 -60,1 -118,-4 -164,-12 -25,-5 -46,-10 -63,-15 -1,-4 -3,-9 -4,-13 -12,-29 -39,-59 -71,-64 -40,-7 -76,25 -71,64 1,12 7,25 16,37 13,16 38,33 74,48 27,11 62,21 105,28 50,9 112,14 178,14 57,-1 115,-6 168,-18 57,-12 110,-32 157,-58 52,-27 96,-60 132,-96 133,-134 207,-411 175,-601 -8,-48 -23,-98 -42,-146 -20,-49 -45,-96 -72,-137 -27,-42 -58,-78 -92,-111 -35,-32 -73,-62 -117,-91 -44,-29 -94,-58 -150,-85 -56,-27 -119,-52 -189,-74 -73,-22 -154,-41 -243,-53 -81,-11 -167,-16 -261,-15 -99,1 -205,10 -310,25l-29 5c7,21 13,44 18,66 8,44 13,89 14,134l0 8c32,-5 63,-9 95,-12zm-3084 1176c-52,5 -99,7 -141,7 -42,0 -82,-3 -121,-9 -203,-27 -369,-138 -477,-317 -33,-55 -63,-120 -76,-184 6,-14 8,-29 8,-44 -1,-39 -39,-81 -79,-50 -7,6 -13,14 -17,24 -4,12 -6,30 -2,58 11,81 50,172 92,241 32,54 75,112 125,166 45,48 95,94 149,132 58,40 118,70 184,92 66,22 137,35 216,43 84,8 177,9 278,-1 87,-10 179,-27 275,-57 103,-31 210,-76 328,-135 118,-60 248,-133 397,-222 109,-66 213,-130 320,-196 222,-136 454,-279 646,-385 224,-122 442,-224 690,-287l55 -13c1,-11 1,-21 0,-32 0,-37 -4,-74 -11,-110 -5,-23 -11,-46 -20,-67 -47,10 -94,21 -139,34 -98,28 -189,62 -283,104 -94,42 -188,91 -292,148 -97,53 -203,115 -311,179 -124,74 -252,152 -372,227l-184 115c-151,96 -289,183 -416,256 -86,49 -165,91 -239,125 -74,35 -144,63 -212,85 -68,21 -134,37 -197,49 -63,12 -122,19 -174,24zm-3541 -158c-74,-34 -153,-76 -239,-125 -126,-73 -265,-160 -416,-256l-183 -115c-121,-75 -249,-153 -373,-227 -108,-64 -214,-126 -310,-179 -105,-57 -199,-106 -292,-148 -94,-42 -186,-76 -284,-104 -45,-13 -92,-24 -139,-34 -8,21 -15,44 -20,67 -7,36 -10,73 -11,110 0,11 0,21 0,32l56 13c247,63 465,165 689,287 193,106 425,249 646,385 107,66 212,130 321,196 149,89 278,162 396,222 119,59 225,104 328,135 96,30 189,47 276,57 100,10 194,9 278,1 79,-8 150,-21 215,-43 66,-22 127,-52 184,-92 54,-38 105,-84 149,-132 50,-54 93,-112 125,-166 42,-69 82,-160 93,-241 3,-28 1,-46 -3,-58 -3,-10 -9,-18 -16,-24 -40,-31 -78,11 -79,50 -1,15 2,30 8,44 -14,64 -44,129 -77,184 -107,179 -273,290 -476,317 -40,6 -79,9 -121,9 -43,0 -89,-2 -142,-7 -52,-5 -111,-12 -174,-24 -62,-12 -129,-28 -196,-49 -68,-22 -138,-50 -213,-85zm2464 -2739c44,79 72,171 90,259 -54,50 -103,106 -151,167 -49,64 -95,134 -134,201 -40,68 -72,134 -92,190 -21,59 -30,108 -29,150 0,44 10,80 26,110 17,32 40,57 68,73 28,17 60,24 95,19 35,-5 73,-22 109,-55 30,-27 60,-64 89,-115 31,-55 60,-126 83,-204 21,-71 36,-149 43,-227 6,-83 3,-166 -8,-250l-5 -27c45,-37 94,-71 148,-102 237,-133 549,-124 807,-57 63,16 121,36 174,60 50,22 94,47 134,73 45,30 84,61 117,93 32,30 59,60 83,90 23,31 43,63 62,98 18,36 35,74 49,113 13,38 24,77 32,114 7,39 11,76 13,113 2,37 1,73 0,108 -2,35 -4,69 -8,103 -4,33 -9,65 -16,96 -6,32 -15,63 -25,93 -9,27 -20,53 -32,75 -13,24 -27,45 -42,66l-1 0 -6 8c-20,-14 -40,-27 -60,-40 -84,-53 -154,-92 -218,-120 -64,-28 -123,-46 -181,-58 -60,-12 -121,-18 -177,-16 -54,2 -105,11 -146,29 -42,18 -75,45 -100,76 -28,36 -46,77 -56,118 -10,38 -12,76 -9,113 4,38 14,74 29,106 16,32 37,60 63,84 26,24 58,44 93,59 34,15 72,26 113,32 40,7 83,9 127,6 45,-2 92,-9 140,-23 49,-13 100,-34 152,-62 51,-29 104,-65 155,-107 32,-25 62,-53 91,-82 68,47 143,100 221,156l63 45c-38,27 -75,53 -112,78 -65,44 -129,85 -195,124 -64,37 -129,72 -196,102 -66,30 -133,56 -202,77 -70,21 -140,37 -211,48 -74,11 -150,18 -222,18 -68,0 -133,-5 -191,-17 -142,-27 -288,-121 -381,-231 -29,-35 -53,-71 -71,-106 -18,-35 -29,-70 -36,-107 -7,-37 -9,-76 -8,-119 2,-44 8,-93 19,-142 9,-46 23,-91 41,-134 17,-43 39,-84 63,-122 26,-40 55,-76 84,-106 25,-26 50,-47 73,-64 11,-8 23,-16 33,-22 12,9 30,15 45,18 9,2 19,3 31,2 27,-2 55,-12 73,-34 23,-28 22,-71 -9,-95 -37,-30 -93,-11 -132,7 -26,11 -58,29 -92,54 -27,20 -56,45 -85,74 -32,34 -64,74 -93,119 -27,42 -51,88 -71,136 -20,49 -35,99 -46,149 -12,53 -18,107 -20,157 -2,49 0,94 9,138 8,45 22,87 44,130 86,170 244,300 425,378 155,67 325,97 482,83 76,-6 164,-19 256,-40 82,-18 166,-42 246,-71 86,-31 168,-70 250,-114 81,-45 162,-96 246,-153 43,-29 86,-59 129,-90l26 18c115,79 233,157 345,226l65 39 83 -51c-33,-20 -68,-40 -103,-61 -111,-69 -228,-146 -341,-225l29 -21c94,-68 189,-136 281,-197 79,-52 156,-98 228,-138 79,-44 152,-79 217,-108 62,-26 117,-47 171,-61 53,-15 104,-24 157,-29 55,-6 113,-7 169,-2 52,3 102,12 145,24 119,36 233,110 288,224 15,31 25,64 32,99 8,36 12,75 12,114 1,41 -1,81 -7,119 -5,35 -13,67 -25,98 -13,31 -31,61 -56,95 -27,36 -63,75 -105,111 -37,31 -79,60 -124,84 -48,24 -99,43 -153,56 -58,14 -119,21 -181,23 -60,1 -122,-2 -191,-16 -56,-12 -117,-31 -186,-59l-90 55 2 1c97,44 180,72 256,87 77,16 145,20 212,18 68,-2 135,-10 198,-25 61,-14 119,-35 173,-63 51,-27 98,-60 139,-95 48,-40 88,-84 119,-125 30,-39 51,-76 67,-114 15,-39 25,-77 31,-119 6,-41 9,-86 8,-132 -1,-44 -6,-89 -14,-130 -8,-43 -21,-82 -39,-120 -40,-83 -106,-151 -178,-207 -40,-30 -84,-57 -129,-81 -47,-23 -95,-42 -146,-56 -105,-29 -209,-34 -317,-24 -58,6 -116,16 -173,31 -56,13 -112,31 -170,53 -57,23 -117,51 -183,86 -62,33 -128,72 -194,113 -75,47 -153,99 -229,151 -74,51 -147,104 -221,156l-87 -62c-74,-53 -145,-104 -211,-150 39,-45 72,-92 100,-141 31,-53 55,-108 74,-167 19,-59 32,-122 39,-186 7,-64 8,-128 3,-188 -5,-62 -17,-120 -34,-175 -18,-56 -41,-108 -69,-159 -29,-51 -62,-100 -101,-147 -39,-46 -84,-90 -135,-132 -53,-44 -114,-84 -180,-119 -60,-33 -126,-60 -196,-81 -74,-21 -152,-35 -232,-41 -80,-5 -162,-3 -246,8 -85,11 -171,30 -253,57 -82,26 -160,59 -230,99 -44,25 -85,52 -124,82 -30,-123 -79,-238 -142,-348 -43,-74 -91,-143 -141,-202 -91,-109 -187,-189 -284,-267 -96,78 -193,158 -284,267 -50,59 -98,128 -141,202 -63,110 -111,225 -141,348 -39,-30 -80,-57 -125,-82 -70,-40 -148,-73 -230,-99 -82,-27 -168,-46 -253,-57 -84,-11 -166,-13 -245,-8 -81,6 -159,20 -232,41 -70,21 -136,48 -197,81 -66,35 -126,75 -180,119 -51,42 -96,86 -135,132 -39,47 -72,96 -100,147 -29,51 -52,103 -69,159 -18,55 -29,113 -35,175 -5,60 -4,124 4,188 7,64 20,127 38,186 19,59 44,114 74,167 28,49 62,96 101,141 -67,46 -138,97 -212,150l-87 62c-73,-52 -147,-105 -221,-156 -76,-52 -154,-104 -229,-151 -66,-41 -132,-80 -194,-113 -65,-35 -126,-63 -183,-86 -58,-22 -113,-40 -170,-53 -57,-15 -115,-25 -173,-31 -108,-10 -211,-5 -316,24 -51,14 -100,33 -146,56 -46,24 -90,51 -129,81 -73,56 -138,124 -178,207 -18,38 -31,77 -40,120 -8,41 -13,86 -13,130 -1,46 1,91 7,132 6,42 16,80 32,119 15,38 37,75 66,114 31,41 71,85 119,125 42,35 89,68 140,95 53,28 112,49 173,63 62,15 129,23 197,25 67,2 136,-2 212,-18 76,-15 159,-43 256,-87l3 -1 -91 -55c-69,28 -129,47 -185,59 -69,14 -132,17 -192,16 -62,-2 -123,-9 -180,-23 -55,-13 -106,-32 -153,-56 -46,-24 -87,-53 -124,-84 -42,-36 -78,-75 -106,-111 -25,-34 -43,-64 -55,-95 -13,-31 -21,-63 -26,-98 -5,-38 -8,-78 -7,-119 1,-39 5,-78 12,-114 7,-35 18,-68 33,-99 55,-114 168,-188 288,-224 43,-12 92,-21 144,-24 56,-5 114,-4 169,2 54,5 105,14 157,29 54,14 110,35 172,61 65,29 137,64 216,108 73,40 149,86 228,138 93,61 187,129 281,197l29 21c-113,79 -230,156 -341,225 -35,21 -69,41 -103,61l84 51 64 -39c112,-69 230,-147 346,-226l25 -18c43,31 86,61 129,90 84,57 165,108 246,153 82,44 164,83 250,114 80,29 164,53 246,71 92,21 181,34 256,40 157,14 328,-16 482,-83 181,-78 339,-208 425,-378 22,-43 36,-85 45,-130 8,-44 10,-89 8,-138 -2,-50 -8,-104 -20,-157 -10,-50 -25,-100 -45,-149 -20,-48 -45,-94 -71,-136 -29,-45 -61,-85 -94,-119 -28,-29 -57,-54 -85,-74 -34,-25 -66,-43 -92,-54 -39,-18 -95,-37 -132,-7 -30,24 -31,67 -8,95 17,22 46,32 73,34 11,1 22,0 31,-2 14,-3 32,-9 44,-18 11,6 22,14 33,22 24,17 49,38 74,64 28,30 57,66 83,106 24,38 46,79 64,122 17,43 31,88 41,134 10,49 16,98 18,142 2,43 0,82 -7,119 -7,37 -19,72 -37,107 -18,35 -42,71 -71,106 -92,110 -239,204 -380,231 -58,12 -124,17 -192,17 -72,0 -147,-7 -221,-18 -72,-11 -142,-27 -211,-48 -70,-21 -137,-47 -203,-77 -67,-30 -132,-65 -196,-102 -65,-39 -130,-80 -195,-124 -36,-25 -73,-51 -111,-78l62 -45c78,-56 153,-109 221,-156 29,29 60,57 91,82 51,42 104,78 156,107 52,28 102,49 151,62 49,14 96,21 141,23 44,3 86,1 126,-6 41,-6 80,-17 114,-32 35,-15 66,-35 92,-59 26,-24 47,-52 63,-84 16,-32 26,-68 29,-106 3,-37 1,-75 -8,-113 -10,-41 -28,-82 -57,-118 -25,-31 -58,-58 -100,-76 -41,-18 -91,-27 -146,-29 -56,-2 -116,4 -177,16 -58,12 -116,30 -181,58 -64,28 -134,67 -218,120 -19,13 -39,26 -60,40l-6 -8 0 0c-16,-21 -30,-42 -43,-66 -12,-22 -22,-48 -32,-75 -10,-30 -18,-61 -25,-93 -7,-31 -12,-63 -15,-96 -4,-34 -7,-68 -8,-103 -2,-35 -2,-71 -1,-108 2,-37 6,-74 14,-113 7,-37 18,-76 31,-114 14,-39 31,-77 50,-113 18,-35 39,-67 62,-98 23,-30 50,-60 82,-90 34,-32 73,-63 117,-93 40,-26 85,-51 134,-73 53,-24 112,-44 174,-60 258,-67 571,-76 808,57 53,31 102,65 147,102l-4 27c-12,84 -15,167 -8,250 6,78 21,156 42,227 23,78 53,149 83,204 29,51 59,88 89,115 37,33 74,50 109,55 35,5 68,-2 96,-19 28,-16 51,-41 67,-73 16,-30 26,-66 27,-110 0,-42 -8,-91 -30,-150 -20,-56 -52,-122 -91,-190 -39,-67 -86,-137 -135,-201 -47,-61 -97,-117 -151,-167 18,-88 46,-180 91,-259 23,-40 51,-79 80,-115 16,-20 35,-42 55,-64 24,-26 47,-51 69,-73 21,-22 41,-42 62,-61 19,-18 40,-37 63,-57 23,-20 47,-41 72,-61 25,20 49,41 72,61 24,20 44,39 63,57 21,19 41,39 62,61 22,22 46,47 69,73 20,22 39,44 55,64 30,36 58,75 81,115zm107 364c7,65 9,132 3,197 -6,73 -20,145 -39,210 -21,72 -48,136 -75,185 -24,42 -48,72 -71,93 -23,21 -45,31 -64,34 -15,2 -28,-1 -40,-7 -14,-8 -25,-22 -35,-39 -9,-19 -16,-42 -16,-71 0,-32 7,-71 24,-120 19,-51 49,-112 85,-176 38,-64 82,-131 129,-191 32,-41 64,-80 99,-115zm818 945c32,-13 71,-20 115,-22 49,-1 103,4 157,15 52,11 105,27 164,53 60,26 126,62 206,113l49 32c-23,23 -48,45 -73,65 -46,38 -95,72 -142,98 -46,25 -90,43 -133,55 -42,12 -83,18 -122,20 -38,2 -75,0 -108,-5 -34,-5 -65,-14 -93,-26 -26,-12 -49,-26 -68,-44 -18,-16 -33,-36 -44,-58 -11,-23 -18,-49 -21,-76 -2,-27 0,-56 7,-85 7,-30 20,-59 40,-84 16,-21 38,-38 66,-51zm-1836 -945c35,35 68,74 99,115 47,60 91,127 129,191 37,64 67,125 85,176 18,49 25,88 24,120 0,29 -6,52 -16,71 -9,17 -21,31 -35,39 -11,6 -25,9 -40,7 -19,-3 -40,-13 -63,-34 -24,-21 -48,-51 -71,-93 -28,-49 -55,-113 -76,-185 -19,-65 -33,-137 -39,-210 -5,-65 -4,-132 3,-197zm-751 996c20,25 32,54 40,84 7,29 9,58 6,85 -3,27 -10,53 -21,76 -11,22 -25,42 -43,58 -20,18 -43,32 -69,44 -28,12 -59,21 -92,26 -34,5 -70,7 -109,5 -39,-2 -79,-8 -122,-20 -42,-12 -87,-30 -133,-55 -47,-26 -95,-60 -142,-98 -25,-20 -50,-42 -73,-65l49 -32c80,-51 147,-87 207,-113 59,-26 111,-42 163,-53 54,-11 108,-16 157,-15 44,2 83,9 115,22 28,13 50,30 67,51zm-6452 7208l1781 0c9,-30 21,-60 33,-88l-1880 0 66 88zm1933 0l2861 0 -67 -88 -2757 0c-16,27 -28,57 -37,88zm13491 0l-1780 0c-10,-30 -21,-60 -34,-88l1881 0 -67 88zm-1933 0l-2860 0 66 -88 2758 0c15,27 27,57 36,88zm-11451 549c50,54 114,103 192,144 80,41 175,75 275,100 112,28 230,46 341,54 105,7 205,6 301,-4 32,-3 64,-7 95,-12l1 8c0,45 5,90 14,134 4,23 10,45 17,67l-29 4c-105,16 -211,24 -310,26 -93,1 -180,-5 -260,-16 -89,-12 -170,-30 -244,-53 -70,-21 -132,-46 -189,-73 -56,-28 -106,-57 -149,-86 -45,-29 -83,-58 -117,-91 -35,-33 -65,-69 -93,-110 -27,-42 -52,-89 -71,-138 -20,-48 -34,-98 -42,-146 -32,-189 41,-467 174,-600 36,-36 81,-70 132,-97 47,-25 100,-45 157,-58 54,-12 112,-17 168,-17 66,-1 129,5 179,13 43,8 77,18 104,28 37,15 61,32 74,48 10,12 15,25 16,37 5,40 -31,72 -71,65 -31,-6 -58,-36 -70,-64 -2,-5 -4,-9 -5,-14 -17,-5 -38,-10 -63,-14 -46,-8 -104,-14 -163,-13 -50,1 -102,5 -150,16 -50,11 -95,28 -135,49 -43,23 -81,51 -111,82 -95,95 -129,242 -123,373 2,56 12,115 36,174 24,63 64,126 119,184zm10235 294c97,10 196,11 302,4 110,-8 228,-26 340,-54 101,-25 196,-59 275,-100 78,-41 142,-90 193,-144 55,-58 94,-121 119,-184 23,-59 34,-118 36,-174 5,-131 -28,-278 -123,-373 -31,-31 -68,-59 -111,-82 -40,-21 -86,-38 -135,-49 -49,-11 -100,-15 -150,-16 -60,-1 -118,5 -164,13 -25,4 -46,9 -63,14 -1,5 -3,9 -4,14 -12,28 -39,58 -71,64 -40,7 -76,-25 -71,-65 1,-12 7,-25 16,-37 13,-16 38,-33 74,-48 27,-10 62,-20 105,-28 50,-8 112,-14 178,-13 57,0 115,5 168,17 57,13 110,33 157,58 52,27 96,61 132,97 133,133 207,411 175,600 -8,48 -23,98 -42,146 -20,49 -45,96 -72,138 -27,41 -58,77 -92,110 -35,33 -73,62 -117,91 -44,29 -94,58 -150,86 -56,27 -119,52 -189,73 -73,23 -154,41 -243,53 -81,11 -167,17 -261,16 -99,-2 -205,-10 -310,-26l-29 -4c7,-22 13,-44 18,-67 8,-44 13,-89 14,-134l0 -8c32,5 63,9 95,12zm-3084 -1176c-52,-5 -99,-7 -141,-7 -42,1 -82,4 -121,9 -203,27 -369,138 -477,317 -33,55 -63,121 -76,184 6,14 8,30 8,45 -1,39 -39,81 -79,49 -7,-6 -13,-14 -17,-24 -4,-11 -6,-30 -2,-58 11,-81 50,-172 92,-241 32,-53 75,-111 125,-165 45,-49 95,-95 149,-133 58,-40 118,-70 184,-92 66,-21 137,-35 216,-43 84,-8 177,-9 278,2 87,9 179,27 275,56 103,32 210,76 328,136 118,59 248,132 397,222 109,65 213,129 320,195 222,136 454,279 646,385 224,123 442,224 690,287l55 13c1,11 1,22 0,32 0,37 -4,74 -11,110 -5,23 -11,46 -20,68 -47,-10 -94,-22 -139,-35 -98,-28 -189,-62 -283,-104 -94,-42 -188,-90 -292,-148 -97,-53 -203,-114 -311,-178 -124,-74 -252,-152 -372,-228l-184 -115c-151,-96 -289,-183 -416,-255 -86,-50 -165,-92 -239,-126 -74,-35 -144,-62 -212,-84 -68,-22 -134,-38 -197,-50 -63,-11 -122,-19 -174,-24zm-3541 158c-74,34 -153,76 -239,126 -126,72 -265,159 -416,255l-183 115c-121,76 -249,154 -373,228 -108,64 -214,125 -310,178 -105,58 -199,106 -292,148 -94,42 -186,76 -284,104 -45,13 -92,25 -139,35 -8,-22 -15,-45 -20,-68 -7,-36 -10,-73 -11,-110 0,-10 0,-21 0,-32l56 -13c247,-63 465,-164 689,-287 193,-106 425,-249 646,-385 107,-66 212,-130 321,-195 149,-90 278,-163 396,-222 119,-60 225,-104 328,-136 96,-29 189,-47 276,-56 100,-11 194,-10 278,-2 79,8 150,22 215,43 66,22 127,52 184,92 54,38 105,84 149,133 50,54 93,112 125,165 42,69 82,160 93,241 3,28 1,47 -3,58 -3,10 -9,18 -16,24 -40,32 -78,-10 -79,-49 -1,-15 2,-31 8,-45 -14,-63 -44,-129 -77,-184 -107,-179 -273,-290 -476,-317 -40,-5 -79,-8 -121,-9 -43,0 -89,2 -142,7 -52,5 -111,13 -174,24 -62,12 -129,28 -196,50 -68,22 -138,49 -213,84zm2464 2739c44,-79 72,-170 90,-259 -54,-50 -103,-105 -151,-167 -49,-64 -95,-133 -134,-201 -40,-67 -72,-133 -92,-190 -21,-59 -30,-108 -29,-150 0,-44 10,-80 26,-109 17,-32 40,-58 68,-74 28,-16 60,-23 95,-18 35,5 73,22 109,54 30,27 60,65 89,116 31,54 60,125 83,204 21,71 36,148 43,227 6,82 3,166 -8,249l-5 27c45,38 94,72 148,102 237,133 549,125 807,58 63,-17 121,-37 174,-61 50,-22 94,-46 134,-73 45,-29 84,-61 117,-93 32,-30 59,-59 83,-90 23,-31 43,-63 62,-98 18,-35 35,-73 49,-113 13,-38 24,-76 32,-114 7,-38 11,-76 13,-112 2,-37 1,-74 0,-109 -2,-35 -4,-69 -8,-103 -4,-33 -9,-65 -16,-96 -6,-32 -15,-63 -25,-93 -9,-27 -20,-52 -32,-75 -13,-24 -27,-45 -42,-65l-1 0 -6 -8c-20,13 -40,27 -60,39 -84,54 -154,92 -218,120 -64,28 -123,46 -181,58 -60,12 -121,18 -177,16 -54,-1 -105,-11 -146,-28 -42,-18 -75,-45 -100,-77 -28,-35 -46,-76 -56,-118 -10,-37 -12,-76 -9,-112 4,-39 14,-75 29,-107 16,-32 37,-60 63,-84 26,-24 58,-43 93,-59 34,-14 72,-25 113,-32 40,-6 83,-8 127,-6 45,2 92,9 140,23 49,14 100,34 152,63 51,28 104,64 155,106 32,26 62,54 91,82 68,-47 143,-100 221,-156l63 -45c-38,-27 -75,-53 -112,-77 -65,-44 -129,-86 -195,-124 -64,-38 -129,-73 -196,-103 -66,-30 -133,-55 -202,-76 -70,-21 -140,-38 -211,-49 -74,-11 -150,-17 -222,-18 -68,0 -133,5 -191,17 -142,28 -288,122 -381,232 -29,34 -53,70 -71,105 -18,36 -29,71 -36,107 -7,38 -9,77 -8,119 2,45 8,93 19,142 9,46 23,92 41,134 17,43 39,84 63,122 26,40 55,76 84,106 25,26 50,47 73,64 11,9 23,16 33,23 12,-9 30,-16 45,-19 9,-1 19,-2 31,-2 27,2 55,12 73,34 23,29 22,71 -9,95 -37,30 -93,11 -132,-6 -26,-12 -58,-30 -92,-55 -27,-20 -56,-45 -85,-74 -32,-34 -64,-74 -93,-119 -27,-41 -51,-87 -71,-136 -20,-49 -35,-99 -46,-149 -12,-53 -18,-107 -20,-157 -2,-48 0,-94 9,-138 8,-44 22,-87 44,-130 86,-170 244,-299 425,-378 155,-67 325,-97 482,-83 76,6 164,20 256,40 82,18 166,42 246,71 86,32 168,70 250,115 81,44 162,95 246,152 43,29 86,60 129,90l26 -17c115,-80 233,-158 345,-227l65 -39 83 52c-33,19 -68,39 -103,61 -111,68 -228,145 -341,224l29 21c94,68 189,136 281,197 79,52 156,98 228,138 79,44 152,80 217,108 62,27 117,47 171,62 53,14 104,24 157,29 55,5 113,6 169,2 52,-4 102,-12 145,-25 119,-35 233,-110 288,-224 15,-31 25,-63 32,-99 8,-36 12,-75 12,-114 1,-40 -1,-81 -7,-118 -5,-36 -13,-68 -25,-99 -13,-30 -31,-61 -56,-94 -27,-37 -63,-76 -105,-112 -37,-31 -79,-60 -124,-84 -48,-24 -99,-43 -153,-55 -58,-14 -119,-22 -181,-23 -60,-2 -122,2 -191,16 -56,11 -117,30 -186,58l-90 -54 2 -2c97,-44 180,-71 256,-87 77,-16 145,-20 212,-18 68,2 135,10 198,25 61,15 119,36 173,64 51,26 98,59 139,94 48,41 88,84 119,125 30,39 51,76 67,115 15,38 25,76 31,118 6,41 9,87 8,133 -1,44 -6,88 -14,129 -8,43 -21,83 -39,120 -40,83 -106,151 -178,207 -40,30 -84,58 -129,81 -47,23 -95,43 -146,57 -105,29 -209,34 -317,23 -58,-6 -116,-16 -173,-30 -56,-14 -112,-31 -170,-54 -57,-23 -117,-50 -183,-86 -62,-33 -128,-71 -194,-113 -75,-47 -153,-98 -229,-151 -74,-51 -147,-104 -221,-156l-87 62c-74,54 -145,104 -211,150 39,45 72,92 100,141 31,53 55,109 74,168 19,59 32,122 39,185 7,64 8,128 3,189 -5,61 -17,119 -34,175 -18,55 -41,108 -69,159 -29,51 -62,100 -101,146 -39,46 -84,91 -135,133 -53,43 -114,84 -180,119 -60,32 -126,60 -196,80 -74,22 -152,36 -232,41 -80,6 -162,3 -246,-7 -85,-11 -171,-31 -253,-57 -82,-27 -160,-60 -230,-99 -44,-25 -85,-53 -124,-83 -30,123 -79,239 -142,348 -43,75 -91,143 -141,202 -91,110 -187,189 -284,268 -96,-79 -193,-158 -284,-268 -50,-59 -98,-127 -141,-202 -63,-109 -111,-225 -141,-348 -39,30 -80,58 -125,83 -70,39 -148,72 -230,99 -82,26 -168,46 -253,57 -84,10 -166,13 -245,7 -81,-5 -159,-19 -232,-41 -70,-20 -136,-48 -197,-80 -66,-35 -126,-76 -180,-119 -51,-42 -96,-87 -135,-133 -39,-46 -72,-95 -100,-146 -29,-51 -52,-104 -69,-159 -18,-56 -29,-114 -35,-175 -5,-61 -4,-125 4,-189 7,-63 20,-126 38,-185 19,-59 44,-115 74,-168 28,-49 62,-96 101,-141 -67,-46 -138,-96 -212,-150l-87 -62c-73,52 -147,105 -221,156 -76,53 -154,104 -229,151 -66,42 -132,80 -194,113 -65,36 -126,63 -183,86 -58,23 -113,40 -170,54 -57,14 -115,24 -173,30 -108,11 -211,6 -316,-23 -51,-14 -100,-34 -146,-57 -46,-23 -90,-51 -129,-81 -73,-56 -138,-124 -178,-207 -18,-37 -31,-77 -40,-120 -8,-41 -13,-85 -13,-129 -1,-46 1,-92 7,-133 6,-42 16,-80 32,-118 15,-39 37,-76 66,-115 31,-41 71,-84 119,-125 42,-35 89,-68 140,-94 53,-28 112,-49 173,-64 62,-15 129,-23 197,-25 67,-2 136,2 212,18 76,16 159,43 256,87l3 2 -91 54c-69,-28 -129,-47 -185,-58 -69,-14 -132,-18 -192,-16 -62,1 -123,9 -180,23 -55,12 -106,31 -153,55 -46,24 -87,53 -124,84 -42,36 -78,75 -106,112 -25,33 -43,64 -55,94 -13,31 -21,63 -26,99 -5,37 -8,78 -7,118 1,39 5,78 12,114 7,36 18,68 33,99 55,114 168,189 288,224 43,13 92,21 144,25 56,4 114,3 169,-2 54,-5 105,-15 157,-29 54,-15 110,-35 172,-62 65,-28 137,-64 216,-108 73,-40 149,-86 228,-138 93,-61 187,-129 281,-197l29 -21c-113,-79 -230,-156 -341,-224 -35,-22 -69,-42 -103,-61l84 -52 64 39c112,69 230,147 346,227l25 17c43,-30 86,-61 129,-90 84,-57 165,-108 246,-152 82,-45 164,-83 250,-115 80,-29 164,-53 246,-71 92,-20 181,-34 256,-40 157,-14 328,16 482,83 181,79 339,208 425,378 22,43 36,86 45,130 8,44 10,90 8,138 -2,50 -8,104 -20,157 -10,50 -25,100 -45,149 -20,49 -45,95 -71,136 -29,45 -61,85 -94,119 -28,29 -57,54 -85,74 -34,25 -66,43 -92,55 -39,17 -95,36 -132,6 -30,-24 -31,-66 -8,-95 17,-22 46,-32 73,-34 11,0 22,1 31,2 14,3 32,10 44,19 11,-7 22,-14 33,-23 24,-17 49,-38 74,-64 28,-30 57,-66 83,-106 24,-38 46,-79 64,-122 17,-42 31,-88 41,-134 10,-49 16,-97 18,-142 2,-42 0,-81 -7,-119 -7,-36 -19,-71 -37,-107 -18,-35 -42,-71 -71,-105 -92,-110 -239,-204 -380,-232 -58,-12 -124,-17 -192,-17 -72,1 -147,7 -221,18 -72,11 -142,28 -211,49 -70,21 -137,46 -203,76 -67,30 -132,65 -196,103 -65,38 -130,80 -195,124 -36,24 -73,50 -111,77l62 45c78,56 153,109 221,156 29,-28 60,-56 91,-82 51,-42 104,-78 156,-106 52,-29 102,-49 151,-63 49,-14 96,-21 141,-23 44,-2 86,0 126,6 41,7 80,18 114,32 35,16 66,35 92,59 26,24 47,52 63,84 16,32 26,68 29,107 3,36 1,75 -8,112 -10,42 -28,83 -57,118 -25,32 -58,59 -100,77 -41,17 -91,27 -146,28 -56,2 -116,-4 -177,-16 -58,-12 -116,-30 -181,-58 -64,-28 -134,-66 -218,-120 -19,-12 -39,-26 -60,-39l-6 8 0 0c-16,20 -30,41 -43,65 -12,23 -22,48 -32,75 -10,30 -18,61 -25,93 -7,31 -12,63 -15,96 -4,34 -7,68 -8,103 -2,35 -2,72 -1,109 2,36 6,74 14,112 7,38 18,76 31,114 14,40 31,78 50,113 18,35 39,67 62,98 23,31 50,60 82,90 34,32 73,64 117,93 40,27 85,51 134,73 53,24 112,44 174,61 258,67 571,75 808,-58 53,-30 102,-64 147,-102l-4 -27c-12,-83 -15,-167 -8,-249 6,-79 21,-156 42,-227 23,-79 53,-150 83,-204 29,-51 59,-89 89,-116 37,-32 74,-49 109,-54 35,-5 68,2 96,18 28,16 51,42 67,74 16,29 26,65 27,109 0,42 -8,91 -30,150 -20,57 -52,123 -91,190 -39,68 -86,137 -135,201 -47,62 -97,117 -151,167 18,89 46,180 91,259 23,41 51,80 80,116 16,20 35,41 55,63 24,26 47,51 69,74 21,21 41,41 62,60 19,19 40,37 63,58 23,20 47,40 72,60 25,-20 49,-40 72,-60 24,-21 44,-39 63,-58 21,-19 41,-39 62,-60 22,-23 46,-48 69,-74 20,-22 39,-43 55,-63 30,-36 58,-75 81,-116zm107 -363c7,-66 9,-132 3,-197 -6,-74 -20,-145 -39,-210 -21,-73 -48,-137 -75,-186 -24,-42 -48,-72 -71,-93 -23,-21 -45,-31 -64,-34 -15,-2 -28,1 -40,8 -14,8 -25,21 -35,39 -9,18 -16,41 -16,70 0,32 7,71 24,120 19,51 49,112 85,176 38,64 82,131 129,191 32,42 64,80 99,116zm818 -946c32,14 71,21 115,22 49,2 103,-4 157,-15 52,-10 105,-26 164,-52 60,-27 126,-63 206,-114l49 -32c-23,-23 -48,-44 -73,-65 -46,-38 -95,-72 -142,-97 -46,-26 -90,-44 -133,-56 -42,-11 -83,-17 -122,-20 -38,-2 -75,0 -108,5 -34,6 -65,15 -93,27 -26,11 -49,26 -68,43 -18,17 -33,36 -44,58 -11,23 -18,49 -21,76 -2,28 0,57 7,85 7,30 20,60 40,84 16,21 38,39 66,51zm-1836 946c35,-36 68,-74 99,-116 47,-60 91,-127 129,-191 37,-64 67,-125 85,-176 18,-49 25,-88 24,-120 0,-29 -6,-52 -16,-70 -9,-18 -21,-31 -35,-39 -11,-7 -25,-10 -40,-8 -19,3 -40,13 -63,34 -24,21 -48,51 -71,93 -28,49 -55,113 -76,186 -19,65 -33,136 -39,210 -5,65 -4,131 3,197zm-751 -997c20,-24 32,-54 40,-84 7,-28 9,-57 6,-85 -3,-27 -10,-53 -21,-76 -11,-22 -25,-41 -43,-58 -20,-17 -43,-32 -69,-43 -28,-12 -59,-21 -92,-27 -34,-5 -70,-7 -109,-5 -39,3 -79,9 -122,20 -42,12 -87,30 -133,56 -47,25 -95,59 -142,97 -25,21 -50,42 -73,65l49 32c80,51 147,87 207,114 59,26 111,42 163,52 54,11 108,17 157,15 44,-1 83,-8 115,-22 28,-12 50,-30 67,-51z"/> </g> </g> </svg>