<?xml version="1.0" encoding="utf-8"?>
<!-- Generator: Adobe Illustrator 16.0.0, SVG Export Plug-In . SVG Version: 6.00 Build 0)  -->
<!DOCTYPE svg PUBLIC "-//W3C//DTD SVG 1.1//EN" "http://www.w3.org/Graphics/SVG/1.1/DTD/svg11.dtd">
<svg version="1.1" id="Layer_1" xmlns="http://www.w3.org/2000/svg" xmlns:xlink="http://www.w3.org/1999/xlink" x="0px" y="0px"
	 width="864px" height="864px" viewBox="0 0 864 864" enable-background="new 0 0 864 864" xml:space="preserve">
<polygon fill="#FBD8E2" points="489.943,132.114 440.486,181.572 391.027,132.113 135.016,132.112 135.016,386.651 185.211,436.847 
	135.016,487.042 135.016,743.053 389.554,743.054 420.852,711.756 440.486,731.391 460.12,711.756 491.416,743.053 745.955,743.053 
	745.956,487.042 715.395,456.48 735.029,436.848 715.395,417.213 745.955,386.652 745.955,132.113 "/>
<path fill="none" stroke="#E57286" stroke-miterlimit="10" d="M460.12,711.756l-19.634-19.635 M715.395,456.48l-19.634-19.634"/>
<path fill="none" stroke="#E57286" stroke-miterlimit="10" d="M445.395,687.213l5.014-5.014 M460.425,672.183l5.009-5.009
	 M475.451,657.156l5.008-5.008 M490.482,642.125l5.008-5.008 M505.508,627.1l5.008-5.008 M520.533,612.074l5.009-5.009
	 M535.564,597.043l5.009-5.009 M550.591,582.017l5.013-5.013 M565.621,566.986l5.004-5.004 M580.643,551.965l5.014-5.014
	 M595.674,536.934l5.013-5.013 M610.705,521.902l5.004-5.004 M625.733,506.874l5.005-5.005 M640.756,491.852l5.014-5.014
	 M655.786,476.821l5.015-5.015 M670.816,461.791l5.006-5.006 M685.839,446.769l5.013-5.013 M190.119,431.938l5.014-5.013
	 M205.15,416.908l5.008-5.01 M220.176,401.881l5.009-5.008 M235.207,386.851l5.009-5.009 M250.233,371.824l5.008-5.008
	 M265.259,356.799l5.009-5.008 M280.289,341.768l5.01-5.009 M295.316,326.742l5.013-5.013 M310.346,311.712l5.005-5.005
	 M325.367,296.69l5.014-5.014 M340.398,281.659l5.014-5.013 M355.43,266.628l5.004-5.004 M370.459,251.599l5.004-5.004
	 M385.48,236.577l5.014-5.014 M400.512,221.546l5.014-5.015 M415.542,206.516l5.005-5.005 M430.564,191.494l5.013-5.013
	 M690.852,431.938l-5.014-5.014 M675.821,416.907l-5.005-5.005 M660.791,401.876l-5.004-5.003 M645.77,386.855l-5.014-5.014
	 M630.739,371.825l-5.015-5.014 M615.707,356.793l-5.003-5.003 M600.688,341.773l-5.014-5.014 M585.656,326.742l-5.01-5.009
	 M570.625,311.711l-5.009-5.009 M555.6,296.685l-5.01-5.009 M540.573,281.659l-5.009-5.009 M525.542,266.628l-5.009-5.009
	 M510.517,251.603l-5.009-5.009 M495.49,236.577l-5.014-5.014 M480.46,221.546l-5.009-5.009 M465.434,206.52l-5.009-5.009
	 M450.402,191.489l-5.008-5.009 M435.577,687.213l-5.014-5.014 M420.547,672.182l-5.006-5.004 M405.516,657.151l-5.004-5.003
	 M390.494,642.131l-5.014-5.015 M375.465,627.1l-5.015-5.014 M360.433,612.068l-5.003-5.004 M345.412,597.048l-5.014-5.014
	 M330.381,582.017l-5.009-5.009 M315.35,566.986l-5.008-5.01 M300.324,551.96l-5.009-5.009 M285.299,536.934l-5.01-5.008
	 M270.268,521.902l-5.01-5.008 M255.242,506.877l-5.01-5.008 M240.216,491.852l-5.014-5.014 M225.186,476.82l-5.01-5.009
	 M210.158,461.795l-5.008-5.01 M195.128,446.764l-5.009-5.009"/>
<path fill="none" stroke="#E57286" stroke-miterlimit="10" d="M465.029,706.848l5.013-5.014 M480.059,691.816l5.01-5.008
	 M495.086,676.791l5.008-5.009 M510.116,661.76l5.009-5.009 M525.143,646.733l5.008-5.008 M540.168,631.708l5.008-5.009
	 M555.199,616.678l5.008-5.01 M570.225,601.65l5.014-5.013 M585.255,586.621l5.005-5.005 M600.276,571.6l5.014-5.014
	 M615.309,556.568l5.012-5.014 M630.339,541.537l5.004-5.004 M645.367,526.508l5.005-5.004 M660.391,511.486l5.014-5.014
	 M675.42,496.455l5.016-5.014 M690.451,481.425l5.006-5.005 M705.473,466.402l5.014-5.013 M427.919,704.688l5.007-5.007
	 M703.321,429.286l5.005-5.005 M170.484,412.303l5.014-5.013 M185.516,397.273l5.008-5.009 M200.541,382.247l5.009-5.008
	 M215.572,367.216l5.009-5.009 M230.599,352.189l5.008-5.008 M245.624,337.164l5.009-5.008 M260.654,322.133l5.01-5.009
	 M275.682,307.107l5.013-5.013 M290.711,292.077l5.005-5.005 M305.732,277.056l5.014-5.014 M320.764,262.024l5.014-5.013
	 M335.795,246.993l5.004-5.004 M350.824,231.964l5.004-5.004 M365.846,216.942l5.014-5.014 M380.877,201.912l5.014-5.015
	 M395.907,186.881l5.005-5.005 M410.93,171.859l5.013-5.013 M710.486,412.305l-5.014-5.014 M695.455,397.273l-5.005-5.005
	 M680.424,382.243l-5.003-5.003 M665.403,367.222l-5.015-5.014 M650.373,352.191l-5.014-5.014 M635.342,337.16l-5.004-5.003
	 M620.32,322.139l-5.014-5.014 M605.289,307.108l-5.008-5.009 M590.259,292.077l-5.009-5.009 M575.232,277.051l-5.008-5.009
	 M560.207,262.025l-5.009-5.009 M545.176,246.994l-5.009-5.009 M530.15,231.969l-5.009-5.009 M515.125,216.943l-5.014-5.014
	 M500.094,201.912l-5.01-5.009 M485.067,186.886l-5.009-5.009 M470.037,171.855l-5.01-5.009 M415.943,706.848l-5.014-5.014
	 M400.912,691.816l-5.005-5.005 M385.881,676.785l-5.003-5.003 M370.86,661.765l-5.015-5.015 M355.83,646.734l-5.014-5.014
	 M340.799,631.703l-5.004-5.004 M325.777,616.682l-5.014-5.014 M310.746,601.65l-5.008-5.008 M295.716,586.62l-5.009-5.009
	 M280.689,571.594l-5.008-5.008 M265.664,556.568l-5.009-5.009 M250.633,541.537l-5.009-5.009 M235.607,526.512l-5.009-5.009
	 M220.582,511.486l-5.014-5.014 M205.551,496.455l-5.01-5.01 M190.524,481.429l-5.009-5.009 M175.494,466.398l-5.01-5.01"/>
</svg>
