<?xml version="1.0" encoding="UTF-8" standalone="no"?>
<!DOCTYPE svg  PUBLIC '-//W3C//DTD SVG 1.0//EN'  'http://www.w3.org/TR/2001/REC-SVG-20010904/DTD/svg10.dtd'>
<svg style="shape-rendering:geometricPrecision;text-rendering:geometricPrecision;image-rendering:optimizeQuality" xmlns="http://www.w3.org/2000/svg" fill-rule="evenodd" xml:space="preserve" height="376.03mm" width="648.1mm" version="1.0" clip-rule="evenodd" xmlns:xlink="http://www.w3.org/1999/xlink" viewBox="0 0 52306 30348">
 <defs>
  <style type="text/css">
   <![CDATA[
    .fil37 {fill:none}
    .fil0 {fill:#330066}
    .fil5 {fill:url(#id1)}
    .fil32 {fill:url(#id2)}
    .fil23 {fill:url(#id3)}
    .fil14 {fill:url(#id4)}
    .fil33 {fill:url(#id5)}
    .fil6 {fill:url(#id6)}
    .fil24 {fill:url(#id7)}
    .fil15 {fill:url(#id8)}
    .fil4 {fill:url(#id9)}
    .fil31 {fill:url(#id10)}
    .fil22 {fill:url(#id11)}
    .fil13 {fill:url(#id12)}
    .fil34 {fill:url(#id13)}
    .fil7 {fill:url(#id14)}
    .fil25 {fill:url(#id15)}
    .fil16 {fill:url(#id16)}
    .fil3 {fill:url(#id17)}
    .fil30 {fill:url(#id18)}
    .fil12 {fill:url(#id19)}
    .fil21 {fill:url(#id20)}
    .fil35 {fill:url(#id21)}
    .fil8 {fill:url(#id22)}
    .fil26 {fill:url(#id23)}
    .fil17 {fill:url(#id24)}
    .fil2 {fill:url(#id25)}
    .fil29 {fill:url(#id26)}
    .fil11 {fill:url(#id27)}
    .fil20 {fill:url(#id28)}
    .fil36 {fill:url(#id29)}
    .fil9 {fill:url(#id30)}
    .fil27 {fill:url(#id31)}
    .fil18 {fill:url(#id32)}
    .fil28 {fill:url(#id33)}
    .fil10 {fill:url(#id34)}
    .fil19 {fill:url(#id35)}
    .fil1 {fill:url(#id36)}
   ]]>
  </style>
   <clipPath id="id0">
    <path d="m0 0h52306v30348h-52306v-30348z"/>
   </clipPath>
  <linearGradient id="id1" y2="45976" gradientUnits="userSpaceOnUse" x2="3912.5" y1="25689" x1="6993.6">
   <stop stop-color="#309" offset="0"/>
   <stop stop-color="#90f" offset="1"/>
  </linearGradient>
  <linearGradient id="id2" y2="3895.5" xlink:href="#id1" gradientUnits="userSpaceOnUse" x2="2663.9" y1="-17378" x1="5894.9">
  </linearGradient>
  <linearGradient id="id3" y2="2228.5" xlink:href="#id1" gradientUnits="userSpaceOnUse" x2="45312" y1="-18058" x1="48394">
  </linearGradient>
  <linearGradient id="id4" y2="45295" xlink:href="#id1" gradientUnits="userSpaceOnUse" x2="46411" y1="24022" x1="49642">
  </linearGradient>
  <linearGradient id="id5" y2="6982.8" xlink:href="#id1" gradientUnits="userSpaceOnUse" x2="-442.53" y1="-12240" x1="2477">
  </linearGradient>
  <linearGradient id="id6" y2="50155" xlink:href="#id1" gradientUnits="userSpaceOnUse" x2="7885.9" y1="28034" x1="11246">
  </linearGradient>
  <linearGradient id="id7" y2="-116.39" xlink:href="#id1" gradientUnits="userSpaceOnUse" x2="41060" y1="-22238" x1="44420">
  </linearGradient>
  <linearGradient id="id8" y2="40157" xlink:href="#id1" gradientUnits="userSpaceOnUse" x2="49829" y1="20935" x1="52748">
  </linearGradient>
  <linearGradient id="id9" y2="40828" xlink:href="#id1" gradientUnits="userSpaceOnUse" x2="614.11" y1="22983" x1="3324.3">
  </linearGradient>
  <linearGradient id="id10" y2="1114.6" xlink:href="#id1" gradientUnits="userSpaceOnUse" x2="6484" y1="-21565" x1="9928.5">
  </linearGradient>
  <linearGradient id="id11" y2="4934.2" xlink:href="#id1" gradientUnits="userSpaceOnUse" x2="48982" y1="-12910" x1="51692">
  </linearGradient>
  <linearGradient id="id12" y2="49482" xlink:href="#id1" gradientUnits="userSpaceOnUse" x2="42378" y1="26803" x1="45822">
  </linearGradient>
  <linearGradient id="id13" y2="10309" xlink:href="#id1" gradientUnits="userSpaceOnUse" x2="-2745" y1="-6332.2" x1="-217.53">
  </linearGradient>
  <linearGradient id="id14" y2="53412" xlink:href="#id1" gradientUnits="userSpaceOnUse" x2="12388" y1="29774" x1="15978">
  </linearGradient>
  <linearGradient id="id15" y2="-1856.6" xlink:href="#id1" gradientUnits="userSpaceOnUse" x2="36328" y1="-25494" x1="39918">
  </linearGradient>
  <linearGradient id="id16" y2="34250" xlink:href="#id1" gradientUnits="userSpaceOnUse" x2="52524" y1="17609" x1="55051">
  </linearGradient>
  <linearGradient id="id17" y2="34863" xlink:href="#id1" gradientUnits="userSpaceOnUse" x2="-1908.3" y1="20003" x1="348.66">
  </linearGradient>
  <linearGradient id="id18" y2="-1276" xlink:href="#id1" gradientUnits="userSpaceOnUse" x2="10902" y1="-24672" x1="14455">
  </linearGradient>
  <linearGradient id="id19" y2="52590" xlink:href="#id1" gradientUnits="userSpaceOnUse" x2="37851" y1="29194" x1="41404">
  </linearGradient>
  <linearGradient id="id20" y2="7914" xlink:href="#id1" gradientUnits="userSpaceOnUse" x2="51957" y1="-6945.9" x1="54214">
  </linearGradient>
  <linearGradient id="id21" y2="13746" xlink:href="#id1" gradientUnits="userSpaceOnUse" x2="-4169.4" y1="191.73" x1="-2110.8">
  </linearGradient>
  <linearGradient id="id22" y2="55470" xlink:href="#id1" gradientUnits="userSpaceOnUse" x2="17307" y1="31034" x1="21019">
  </linearGradient>
  <linearGradient id="id23" y2="-3116.2" xlink:href="#id1" gradientUnits="userSpaceOnUse" x2="31287" y1="-27552" x1="34999">
  </linearGradient>
  <linearGradient id="id24" y2="27726" xlink:href="#id1" gradientUnits="userSpaceOnUse" x2="54417" y1="14172" x1="56475">
  </linearGradient>
  <linearGradient id="id25" y2="28294" xlink:href="#id1" gradientUnits="userSpaceOnUse" x2="-3582.5" y1="16810" x1="-1838.4">
  </linearGradient>
  <linearGradient id="id26" y2="-3008" xlink:href="#id1" gradientUnits="userSpaceOnUse" x2="15753" y1="-26802" x1="19367">
  </linearGradient>
  <linearGradient id="id27" y2="54719" xlink:href="#id1" gradientUnits="userSpaceOnUse" x2="32939" y1="30925" x1="36553">
  </linearGradient>
  <linearGradient id="id28" y2="11107" xlink:href="#id1" gradientUnits="userSpaceOnUse" x2="54144" y1="-376.02" x1="55888">
  </linearGradient>
  <linearGradient id="id29" y2="17190" xlink:href="#id1" gradientUnits="userSpaceOnUse" x2="-4672.4" y1="7134" x1="-3145.2">
  </linearGradient>
  <linearGradient id="id30" y2="56267" xlink:href="#id1" gradientUnits="userSpaceOnUse" x2="22496" y1="31774" x1="26216">
  </linearGradient>
  <linearGradient id="id31" y2="-3857" xlink:href="#id1" gradientUnits="userSpaceOnUse" x2="26090" y1="-28349" x1="29810">
  </linearGradient>
  <linearGradient id="id32" y2="20784" xlink:href="#id1" gradientUnits="userSpaceOnUse" x2="55451" y1="10728" x1="56978">
  </linearGradient>
  <linearGradient id="id33" y2="-3935.4" xlink:href="#id1" gradientUnits="userSpaceOnUse" x2="20876" y1="-27981" x1="24529">
  </linearGradient>
  <linearGradient id="id34" y2="55899" xlink:href="#id1" gradientUnits="userSpaceOnUse" x2="27777" y1="31853" x1="31430">
  </linearGradient>
  <linearGradient id="id35" y2="14431" xlink:href="#id1" gradientUnits="userSpaceOnUse" x2="55474" y1="6585.5" x1="56666">
  </linearGradient>
  <linearGradient id="id36" y2="21902" xlink:href="#id1" gradientUnits="userSpaceOnUse" x2="-3429" y1="14956" x1="-2374.1">
  </linearGradient>
 </defs>
 <g id="Warstwa_x0020_1">
  <rect width="52306" class="fil0" height="30348"/>
  <g style="clip-path:url(#id0)">
    <g id="_694104672">
     <path class="fil1" d="m-31956 13959h58109l-58109 8940v-8940z"/>
     <path class="fil2" d="m-31073 24049l57226-10090-55674 18894-1552-8804z"/>
     <path class="fil3" d="m-28452 33833l54605-19874-51547 28275-3058-8401z"/>
     <path class="fil4" d="m-24171 43013l50324-29054-45854 36796-4470-7742z"/>
     <path class="fil5" d="m-18361 51311l44514-37352-38768 44200-5746-6848z"/>
     <path class="fil6" d="m-11199 58473l37352-44514-30503 50260-6849-5746z"/>
     <path class="fil7" d="m-2902 64283l29055-50324-21312 54794-7743-4470z"/>
     <path class="fil8" d="m6279 68563l19874-54604-11474 57662-8400-3058z"/>
     <path class="fil9" d="m16062 71185l10091-57226-1286 58778-8805-1552z"/>
     <path class="fil10" d="m26153 72068v-58109l8940 58109h-8940z"/>
     <path class="fil11" d="m36244 71185l-10091-57226 18895 55674-8804 1552z"/>
     <path class="fil12" d="m46027 68563l-19874-54604 28275 51547-8401 3057z"/>
     <path class="fil13" d="m55208 64283l-29055-50324 36797 45854-7742 4470z"/>
     <path class="fil14" d="m63505 58473l-37352-44514 44200 38767-6848 5747z"/>
     <path class="fil15" d="m70667 51311l-44514-37352 50261 30503-5747 6849z"/>
     <path class="fil16" d="m76477 43013l-50324-29054 54794 21312-4470 7742z"/>
     <path class="fil17" d="m80758 33833l-54605-19874 57662 11473-3057 8401z"/>
     <path class="fil18" d="m83379 24049l-57226-10090 58779 1286-1553 8804z"/>
     <path class="fil19" d="m84262 13959h-58109l58109-8940v8940z"/>
     <path class="fil20" d="m83379 3868l-57226 10091 55674-18895 1552 8804z"/>
     <path class="fil21" d="m80758-5916l-54605 19875 51547-28275 3058 8400z"/>
     <path class="fil22" d="m76477-15096l-50324 29055 45854-36797 4470 7742z"/>
     <path class="fil23" d="m70667-23393l-44514 37352 38768-44200 5746 6848z"/>
     <path class="fil24" d="m63505-30555l-37352 44514 30503-50261 6849 5747z"/>
     <path class="fil25" d="m55208-36365l-29055 50324 21312-54794 7743 4470z"/>
     <path class="fil26" d="m46027-40646l-19874 54605 11474-57663 8400 3058z"/>
     <path class="fil27" d="m36244-43268l-10091 57227 1286-58779 8805 1552z"/>
     <path class="fil28" d="m26153-44150v58109l-8940-58109h8940z"/>
     <path class="fil29" d="m16062-43268l10091 57227-18895-55674 8804-1553z"/>
     <path class="fil30" d="m6279-40646l19874 54605-28275-51547 8401-3058z"/>
     <path class="fil31" d="m-2902-36365l29055 50324-36797-45854 7742-4470z"/>
     <path class="fil32" d="m-11199-30555l37352 44514-44200-38768 6848-5746z"/>
     <path class="fil33" d="m-18361-23393l44514 37352-50261-30504 5747-6848z"/>
     <path class="fil34" d="m-24171-15096l50324 29055-54794-21313 4470-7742z"/>
     <path class="fil35" d="m-28452-5916l54605 19875-57662-11474 3057-8401z"/>
     <path class="fil36" d="m-31073 3868l57226 10091-58779-1287 1553-8804z"/>
    </g>
    <g>
    <text>heyyy</text>
    </g>
  </g>
  <path class="fil37" d="m0 0h52306v30348h-52306v-30348z"/>
 </g>
</svg>
