<?xml version="1.0" encoding="UTF-8"?>
<svg enable-background="new 0 0 1677.286 1677.286"  version="1.1" viewBox="0 0 1677.286 1677.286" xmlns="http://www.w3.org/2000/svg">
 <g transform="translate(0 -308.27)">
  <path d="m1588.5 1146.9c11.415-14.901 18.472-33.406 13.87-61.029-20.32-124.96-179.43-103.81-139.41-241.01-42.223 136.95 115.39 120.69 132.95 242 3.974 28.307-5.269 45.737-18.88 60.036 13.611 14.299 22.854 31.729 18.88 60.036-17.554 121.31-175.17 105.06-132.95 242-40.025-137.2 119.09-116.05 139.41-241.01 4.601-27.624-2.455-46.129-13.87-61.03z"/>
  <path d="m838.64 1896.8c14.902 11.415 33.406 18.472 61.029 13.87 124.96-20.32 103.81-179.43 241.01-139.41-136.95-42.223-120.69 115.39-242 132.95-28.307 3.974-45.737-5.269-60.036-18.88-14.299 13.611-31.728 22.853-60.036 18.88-121.31-17.554-105.06-175.17-242-132.95 137.2-40.025 116.05 119.09 241.01 139.41 27.624 4.602 46.128-2.455 61.03-13.87z"/>
  <path d="m88.77 1146.9c-11.415 14.901-18.472 33.406-13.87 61.029 20.32 124.96 179.43 103.81 139.41 241.01 42.223-136.95-115.39-120.69-132.95-242-3.974-28.307 5.269-45.737 18.88-60.036-13.611-14.299-22.853-31.729-18.88-60.036 17.555-121.31 175.17-105.05 132.95-242 40.026 137.2-119.09 116.05-139.41 241.01-4.602 27.623 2.455 46.128 13.87 61.03z"/>
  <path d="m838.64 397.04c-14.901-11.415-33.406-18.472-61.029-13.87-124.96 20.32-103.81 179.43-241.01 139.41 136.95 42.223 120.69-115.39 242-132.95 28.307-3.974 45.737 5.269 60.036 18.88 14.299-13.611 31.729-22.853 60.036-18.88 121.31 17.554 105.06 175.17 242 132.95-137.2 40.025-116.05-119.09-241.01-139.41-27.624-4.602-46.129 2.455-61.03 13.87z"/>
  <path d="m714.04 415.28c-1.394 0.355-2.786 0.677-4.173 0.967-71.864 69.49-167.9 9.333-134.76-47.175 14.989-25.557 50.161-25.77 59.511 0.665 10.263 29.02-20.456 62.541-47.95 69.536-42.856 10.904-67.349-33.579-43.282-55.336 12.15-10.984 29.908-7.899 37.997 4.379-12.554-19.494-43.308-13.008-47.684 12.202-6.105 35.173 44.991 62.839 86.688 20.01 41.894-43.018 4.175-89.836-33.003-68.121-12.228 7.148-20.313 20.27-21.598 35.269-4.925 59.529 84.642 91.877 147.22 31.826 0.377-1.41 0.723-2.818 1.036-4.222z"/>
  <path d="m107.01 1271.5c0.355 1.395 0.677 2.786 0.967 4.173 69.49 71.864 9.333 167.9-47.175 134.76-25.557-14.989-25.77-50.161 0.665-59.511 29.02-10.263 62.541 20.456 69.536 47.95 10.904 42.856-33.579 67.349-55.336 43.282-10.984-12.15-7.899-29.908 4.379-37.997-19.494 12.554-13.008 43.308 12.202 47.684 35.173 6.105 62.839-44.991 20.01-86.688-43.018-41.894-89.836-4.175-68.121 33.003 7.148 12.228 20.27 20.313 35.269 21.598 59.529 4.925 91.877-84.642 31.826-147.22-1.41-0.377-2.818-0.723-4.222-1.036z"/>
  <path d="m963.24 1878.5c1.394-0.355 2.786-0.677 4.173-0.967 71.864-69.49 167.9-9.333 134.76 47.175-14.989 25.557-50.161 25.77-59.511-0.665-10.263-29.02 20.456-62.541 47.95-69.536 42.856-10.904 67.349 33.579 43.282 55.336-12.15 10.984-29.908 7.899-37.997-4.379 12.554 19.494 43.308 13.008 47.684-12.203 6.105-35.173-44.991-62.839-86.688-20.01-41.894 43.018-4.175 89.836 33.003 68.121 12.228-7.148 20.313-20.27 21.598-35.269 4.925-59.529-84.642-91.877-147.22-31.826-0.376 1.41-0.722 2.818-1.036 4.223z"/>
  <path d="m1570.3 1022.3c-0.355-1.394-0.677-2.786-0.967-4.173-69.49-71.864-9.333-167.9 47.175-134.76 25.557 14.989 25.77 50.161-0.665 59.511-29.02 10.263-62.541-20.456-69.536-47.95-10.904-42.856 33.579-67.349 55.336-43.282 10.984 12.15 7.899 29.908-4.379 37.997 19.494-12.554 13.008-43.308-12.203-47.684-35.173-6.105-62.839 44.991-20.01 86.688 43.018 41.894 89.836 4.175 68.121-33.003-7.148-12.228-20.27-20.313-35.269-21.598-59.529-4.925-91.877 84.642-31.826 147.22 1.41 0.377 2.818 0.722 4.223 1.036z"/>
  <path d="m963.24 415.28c1.394 0.355 2.786 0.677 4.173 0.967 71.864 69.49 167.9 9.333 134.76-47.175-14.989-25.557-50.161-25.77-59.511 0.665-10.263 29.02 20.456 62.541 47.95 69.536 42.856 10.904 67.349-33.579 43.282-55.336-12.15-10.984-29.908-7.899-37.997 4.379 12.554-19.494 43.308-13.008 47.684 12.202 6.105 35.173-44.991 62.839-86.688 20.01-41.894-43.018-4.175-89.836 33.003-68.121 12.228 7.148 20.313 20.27 21.598 35.269 4.925 59.529-84.642 91.877-147.22 31.826-0.376-1.41-0.722-2.818-1.036-4.222z"/>
  <path d="m107.01 1022.3c0.355-1.394 0.677-2.786 0.967-4.173 69.49-71.864 9.333-167.9-47.175-134.76-25.557 14.989-25.77 50.161 0.665 59.511 29.02 10.263 62.541-20.456 69.536-47.95 10.904-42.856-33.579-67.349-55.336-43.282-10.984 12.15-7.899 29.908 4.379 37.997-19.494-12.555-13.007-43.309 12.203-47.685 35.173-6.105 62.839 44.991 20.01 86.688-43.018 41.894-89.836 4.175-68.121-33.003 7.148-12.228 20.27-20.313 35.269-21.598 59.529-4.925 91.877 84.642 31.826 147.22-1.411 0.378-2.819 0.723-4.223 1.037z"/>
  <path d="m714.04 1878.5c-1.394-0.355-2.786-0.677-4.173-0.967-71.864-69.49-167.9-9.333-134.76 47.175 14.989 25.557 50.161 25.77 59.511-0.665 10.263-29.02-20.456-62.541-47.95-69.536-42.856-10.904-67.349 33.579-43.282 55.336 12.15 10.984 29.908 7.899 37.997-4.379-12.554 19.494-43.308 13.008-47.684-12.203-6.105-35.173 44.991-62.839 86.688-20.01 41.894 43.018 4.175 89.836-33.003 68.121-12.228-7.148-20.313-20.27-21.598-35.269-4.925-59.529 84.642-91.877 147.22-31.826 0.377 1.41 0.723 2.818 1.036 4.223z"/>
  <path d="m1570.3 1271.5c-0.355 1.395-0.677 2.786-0.967 4.173-69.49 71.864-9.333 167.9 47.175 134.76 25.557-14.989 25.77-50.161-0.665-59.511-29.02-10.263-62.541 20.456-69.536 47.95-10.904 42.856 33.579 67.349 55.336 43.282 10.984-12.15 7.899-29.908-4.379-37.997 19.494 12.554 13.008 43.308-12.203 47.684-35.173 6.105-62.839-44.991-20.01-86.688 43.018-41.894 89.836-4.175 68.121 33.003-7.148 12.228-20.27 20.313-35.269 21.598-59.529 4.925-91.877-84.642-31.826-147.22 1.41-0.377 2.818-0.723 4.223-1.036z"/>
  <path d="m627.74 512.77c-25.389 15.188-23.238 48.998-2.104 52.216 11.487 1.712 19.975-8.702 16.188-17.307-5.443-12.357-25.642-6.67-32.165 5.966-7.209 13.963 6.308 25.72 15.555 19.188 4.559-3.22 5.018-9.426 1.456-13.137 5.417 5.772 0.706 15.277-7.826 14.63-11.763-0.892-16.647-19.539 0.522-29.626 13.591-7.982 24.302 0.33 22.069 9.599-2.565 10.645-18.486 13.822-26.816 2.274-9.226-12.79-1.617-33.129 13.974-42.37l-0.853-1.433z"/>
  <path d="m204.5 1357.8c15.188 25.389 48.998 23.239 52.216 2.104 1.712-11.487-8.702-19.975-17.307-16.188-12.357 5.443-6.67 25.642 5.966 32.165 13.963 7.208 25.72-6.308 19.187-15.556-3.22-4.558-9.426-5.018-13.137-1.456 5.772-5.417 15.277-0.706 14.63 7.826-0.892 11.763-19.539 16.647-29.626-0.522-7.982-13.591 0.33-24.302 9.599-22.069 10.645 2.565 13.822 18.486 2.274 26.816-12.79 9.226-33.129 1.617-42.37-13.974l-1.432 0.854z"/>
  <path d="m1049.5 1781.1c25.389-15.188 23.239-48.998 2.104-52.216-11.487-1.712-19.975 8.702-16.188 17.307 5.443 12.357 25.642 6.67 32.165-5.966 7.208-13.963-6.308-25.72-15.556-19.188-4.558 3.22-5.018 9.426-1.456 13.137-5.417-5.772-0.706-15.277 7.826-14.63 11.763 0.892 16.647 19.539-0.522 29.626-13.591 7.982-24.302-0.33-22.069-9.599 2.565-10.645 18.486-13.822 26.816-2.274 9.226 12.79 1.617 33.129-13.974 42.37l0.854 1.433z"/>
  <path d="m1472.8 936.01c-15.188-25.389-48.999-23.238-52.216-2.104-1.712 11.487 8.702 19.975 17.307 16.188 12.357-5.443 6.67-25.642-5.966-32.165-13.963-7.209-25.72 6.308-19.188 15.555 3.22 4.559 9.426 5.018 13.137 1.456-5.772 5.417-15.277 0.706-14.63-7.826 0.892-11.763 19.539-16.647 29.626 0.522 7.982 13.591-0.33 24.302-9.599 22.069-10.646-2.565-13.822-18.486-2.274-26.816 12.79-9.226 33.129-1.617 42.37 13.974l1.433-0.853z"/>
  <path d="m1049.5 512.77c25.389 15.188 23.239 48.998 2.104 52.216-11.487 1.712-19.975-8.702-16.188-17.307 5.443-12.357 25.642-6.67 32.165 5.966 7.208 13.963-6.308 25.72-15.556 19.188-4.558-3.22-5.018-9.426-1.456-13.137-5.417 5.772-0.706 15.277 7.826 14.63 11.763-0.892 16.647-19.539-0.522-29.626-13.591-7.982-24.302 0.33-22.069 9.599 2.565 10.645 18.486 13.822 26.816 2.274 9.226-12.79 1.617-33.129-13.974-42.37l0.854-1.433z"/>
  <path d="m204.5 936.01c15.188-25.389 48.998-23.238 52.216-2.104 1.712 11.487-8.702 19.975-17.307 16.188-12.357-5.443-6.67-25.642 5.966-32.165 13.963-7.209 25.72 6.308 19.187 15.555-3.22 4.559-9.426 5.018-13.137 1.456 5.772 5.417 15.277 0.706 14.63-7.826-0.892-11.763-19.539-16.647-29.626 0.522-7.982 13.591 0.33 24.302 9.599 22.069 10.645-2.565 13.822-18.486 2.274-26.816-12.79-9.226-33.129-1.617-42.37 13.974l-1.432-0.853z"/>
  <path d="m627.74 1781.1c-25.389-15.188-23.238-48.998-2.104-52.216 11.487-1.712 19.975 8.702 16.188 17.307-5.443 12.357-25.642 6.67-32.165-5.966-7.209-13.963 6.308-25.72 15.555-19.188 4.559 3.22 5.018 9.426 1.456 13.137 5.417-5.772 0.706-15.277-7.826-14.63-11.763 0.892-16.647 19.539 0.522 29.626 13.591 7.982 24.302-0.33 22.069-9.599-2.565-10.645-18.486-13.822-26.816-2.274-9.226 12.79-1.617 33.129 13.974 42.37l-0.853 1.433z"/>
  <path d="m1472.8 1357.8c-15.188 25.389-48.999 23.239-52.216 2.104-1.712-11.487 8.702-19.975 17.307-16.188 12.357 5.443 6.67 25.642-5.966 32.165-13.963 7.208-25.72-6.308-19.188-15.556 3.22-4.558 9.426-5.018 13.137-1.456-5.772-5.417-15.277-0.706-14.63 7.826 0.892 11.763 19.539 16.647 29.626-0.522 7.982-13.591-0.33-24.302-9.599-22.069-10.646 2.565-13.822 18.486-2.274 26.816 12.79 9.226 33.129 1.617 42.37-13.974l1.433 0.854z"/>
  <path d="m821.28 432.08c-6.174-2.623-12.767-3.997-20.129-3.041-17.396 2.944-30.905 21.662-25.675 39.449 0.692 2.354 1.611 4.586 2.732 6.664 2.078 1.121 4.31 2.04 6.664 2.732 17.788 5.23 36.506-8.279 39.449-25.675 0.957-7.362-0.418-13.955-3.041-20.129zm-52.811 52.811c-10.158-15.608-10.177-38.45 0.908-51.805 12.182-15.571 37.665-15.379 56.916-6.018 9.361 19.251 9.553 44.734-6.018 56.916-13.356 11.084-36.198 11.065-51.806 0.907z"/>
  <path d="m123.81 1164.3c-2.623 6.174-3.997 12.767-3.041 20.129 2.944 17.396 21.662 30.905 39.449 25.675 2.354-0.692 4.586-1.611 6.664-2.732 1.121-2.078 2.04-4.31 2.732-6.664 5.23-17.788-8.279-36.506-25.675-39.449-7.362-0.956-13.954 0.418-20.129 3.041zm52.811 52.811c-15.608 10.158-38.45 10.177-51.805-0.907-15.571-12.182-15.379-37.665-6.018-56.916 19.251-9.361 44.734-9.553 56.916 6.018 11.084 13.355 11.065 36.197 0.907 51.805z"/>
  <path d="m856 1861.7c6.174 2.623 12.767 3.997 20.129 3.041 17.396-2.943 30.905-21.662 25.675-39.449-0.692-2.354-1.611-4.586-2.732-6.664-2.078-1.121-4.31-2.04-6.664-2.732-17.788-5.23-36.506 8.278-39.449 25.675-0.956 7.362 0.418 13.955 3.041 20.129zm52.811-52.811c10.158 15.608 10.177 38.45-0.907 51.805-12.182 15.571-37.665 15.379-56.916 6.018-9.361-19.251-9.553-44.734 6.018-56.916 13.355-11.084 36.197-11.065 51.805-0.907z"/>
  <path d="m1553.5 1129.6c2.623-6.174 3.997-12.767 3.041-20.129-2.944-17.396-21.662-30.905-39.449-25.675-2.354 0.692-4.586 1.611-6.664 2.732-1.121 2.078-2.04 4.31-2.732 6.664-5.23 17.788 8.278 36.506 25.675 39.449 7.362 0.956 13.955-0.418 20.129-3.041zm-52.811-52.811c15.608-10.158 38.45-10.177 51.805 0.908 15.571 12.182 15.379 37.665 6.018 56.916-19.251 9.361-44.734 9.553-56.916-6.018-11.083-13.356-11.065-36.198-0.907-51.806z"/>
  <path d="m856 432.08c6.174-2.623 12.767-3.997 20.129-3.041 17.396 2.944 30.905 21.662 25.675 39.449-0.692 2.354-1.611 4.586-2.732 6.664-2.078 1.121-4.31 2.04-6.664 2.732-17.788 5.23-36.506-8.279-39.449-25.675-0.956-7.362 0.418-13.955 3.041-20.129zm52.811 52.811c10.158-15.608 10.177-38.45-0.907-51.805-12.182-15.571-37.665-15.379-56.916-6.018-9.361 19.251-9.553 44.734 6.018 56.916 13.355 11.084 36.197 11.065 51.805 0.907z"/>
  <path d="m123.81 1129.6c-2.623-6.174-3.997-12.767-3.041-20.129 2.944-17.396 21.662-30.905 39.449-25.675 2.354 0.692 4.586 1.611 6.664 2.732 1.121 2.078 2.04 4.31 2.732 6.664 5.23 17.788-8.279 36.506-25.675 39.449-7.362 0.956-13.954-0.418-20.129-3.041zm52.811-52.811c-15.608-10.158-38.45-10.177-51.805 0.908-15.571 12.182-15.379 37.665-6.018 56.916 19.251 9.361 44.734 9.553 56.916-6.018 11.084-13.356 11.065-36.198 0.907-51.806z"/>
  <path d="m821.28 1861.7c-6.174 2.623-12.767 3.997-20.129 3.041-17.396-2.943-30.905-21.662-25.675-39.449 0.692-2.354 1.611-4.586 2.732-6.664 2.078-1.121 4.31-2.04 6.664-2.732 17.788-5.23 36.506 8.278 39.449 25.675 0.957 7.362-0.418 13.955-3.041 20.129zm-52.811-52.811c-10.158 15.608-10.177 38.45 0.908 51.805 12.182 15.571 37.665 15.379 56.916 6.018 9.361-19.251 9.553-44.734-6.018-56.916-13.356-11.084-36.198-11.065-51.806-0.907z"/>
  <path d="m1553.5 1164.3c2.623 6.174 3.997 12.767 3.041 20.129-2.944 17.396-21.662 30.905-39.449 25.675-2.354-0.692-4.586-1.611-6.664-2.732-1.121-2.078-2.04-4.31-2.732-6.664-5.23-17.788 8.278-36.506 25.675-39.449 7.362-0.956 13.955 0.418 20.129 3.041zm-52.811 52.811c15.608 10.158 38.45 10.177 51.805-0.907 15.571-12.182 15.379-37.665 6.018-56.916-19.251-9.361-44.734-9.553-56.916 6.018-11.083 13.355-11.065 36.197-0.907 51.805z"/>
  <path d="m838.64 397.29c-74.278-63.53-132.99 11.106-169.88-21.89 36.721 35.93 97.279-39.043 169.88 31.084 72.596-70.127 133.15 4.846 169.88-31.084-36.89 32.996-95.598-41.64-169.88 21.89z"/>
  <path d="m1588.3 1146.9c63.53-74.278-11.106-132.99 21.89-169.88-35.93 36.721 39.042 97.279-31.084 169.88 70.127 72.596-4.846 133.15 31.084 169.88-32.996-36.89 41.64-95.598-21.89-169.88z"/>
  <path d="m838.64 1896.5c74.278 63.53 132.99-11.106 169.88 21.89-36.721-35.93-97.279 39.042-169.88-31.084-72.596 70.127-133.15-4.846-169.88 31.084 36.889-32.996 95.597 41.64 169.88-21.89z"/>
  <path d="m89.02 1146.9c-63.53 74.278 11.106 132.99-21.89 169.88 35.93-36.721-39.043-97.279 31.084-169.88-70.127-72.596 4.846-133.15-31.084-169.88 32.997 36.889-41.639 95.597 21.89 169.88z"/>
  <path d="m690.27 432.21c-91.204 66.583-166.74 2.27-212.18 31.806 46.257-27.294 121.25 40.327 216.26-26.099l-4.076-5.707z"/>
  <path d="m123.94 1295.3c66.583 91.204 2.27 166.74 31.806 212.18-27.294-46.257 40.326-121.25-26.099-216.26l-5.707 4.076z"/>
  <path d="m987.01 1861.6c91.204-66.583 166.74-2.27 212.18-31.806-46.257 27.294-121.25-40.327-216.26 26.099l4.076 5.707z"/>
  <path d="m1553.3 998.54c-66.583-91.204-2.27-166.74-31.806-212.18 27.294 46.257-40.327 121.25 26.099 216.26l5.707-4.076z"/>
  <path d="m987.01 432.21c91.204 66.583 166.74 2.27 212.18 31.806-46.257-27.294-121.25 40.327-216.26-26.099l4.076-5.707z"/>
  <path d="m123.94 998.54c66.583-91.204 2.27-166.74 31.806-212.18-27.294 46.257 40.326 121.25-26.099 216.26l-5.707-4.076z"/>
  <path d="m690.27 1861.6c-91.204-66.583-166.74-2.27-212.18-31.806 46.257 27.294 121.25-40.327 216.26 26.099l-4.076 5.707z"/>
  <path d="m1553.3 1295.3c-66.583 91.204-2.27 166.74-31.806 212.18 27.294-46.257-40.327-121.25 26.099-216.26l5.707 4.076z"/>
  <path d="m835.66 402.23c-24.523-23.088-64.208-10.135-78.616 33.087-2.924 7.836-4.898 16.436-12.836 20.592-7.658 3.641-18.137 1e-3 -20.985-8.441-2.445-7.245 0.279-15.097 7.933-18.397 7.681-2.137 10.963 4.67 10.945 4.651 2.681 6.966-4.848 10.912-9.851 6.738 5.589 11.798 19.387-2.234 11.414-11.458-6.967-7.654-15.212-5.934-22.36 0.613-11.324 10.625-3.093 30.086 9.283 33.466 9.717 2.958 20.446-5.367 25.018-15.22 5.857-12.691 8.696-27.93 18.697-38.255 9.958-11.247 25.284-19.302 40.593-16.388 7.493 1.414 14.373 4.979 20.765 9.012z"/>
  <path d="m93.962 1149.9c-23.088 24.523-10.135 64.208 33.087 78.616 7.836 2.924 16.436 4.899 20.592 12.836 3.641 7.657 1e-3 18.137-8.441 20.985-7.245 2.445-15.097-0.279-18.397-7.933-2.137-7.681 4.67-10.963 4.651-10.945 6.966-2.681 10.912 4.848 6.738 9.85 11.798-5.589-2.234-19.387-11.458-11.414-7.654 6.967-5.934 15.212 0.613 22.359 10.625 11.324 30.086 3.093 33.466-9.283 2.958-9.717-5.367-20.446-15.22-25.018-12.691-5.857-27.93-8.696-38.255-18.697-11.247-9.958-19.302-25.284-16.388-40.593 1.413-7.49 4.978-14.371 9.012-20.763z"/>
  <path d="m841.63 1891.6c24.523 23.088 64.208 10.135 78.616-33.088 2.924-7.836 4.898-16.436 12.836-20.592 7.657-3.641 18.137-1e-3 20.985 8.441 2.445 7.245-0.279 15.097-7.933 18.397-7.681 2.137-10.963-4.67-10.945-4.651-2.681-6.966 4.848-10.912 9.851-6.738-5.589-11.798-19.387 2.234-11.414 11.458 6.967 7.654 15.212 5.934 22.359-0.613 11.324-10.625 3.093-30.086-9.283-33.466-9.717-2.958-20.446 5.367-25.018 15.22-5.857 12.691-8.696 27.93-18.697 38.255-9.958 11.247-25.284 19.302-40.593 16.388-7.492-1.413-14.372-4.978-20.764-9.011z"/>
  <path d="m1583.3 1143.9c23.087-24.523 10.135-64.208-33.088-78.616-7.836-2.924-16.436-4.898-20.592-12.836-3.641-7.658-1e-3 -18.137 8.441-20.985 7.245-2.445 15.097 0.279 18.397 7.933 2.137 7.681-4.67 10.963-4.651 10.945-6.966 2.681-10.912-4.848-6.738-9.851-11.798 5.589 2.234 19.387 11.458 11.414 7.654-6.967 5.934-15.212-0.613-22.36-10.625-11.324-30.086-3.093-33.466 9.283-2.958 9.717 5.367 20.446 15.22 25.018 12.691 5.857 27.93 8.696 38.255 18.697 11.247 9.958 19.302 25.284 16.388 40.593-1.413 7.492-4.977 14.373-9.011 20.765z"/>
  <path d="m841.63 402.23c24.523-23.088 64.208-10.135 78.616 33.087 2.924 7.836 4.898 16.436 12.836 20.592 7.657 3.641 18.137 1e-3 20.985-8.441 2.445-7.245-0.279-15.097-7.933-18.397-7.681-2.137-10.963 4.67-10.945 4.651-2.681 6.966 4.848 10.912 9.851 6.738-5.589 11.798-19.387-2.234-11.414-11.458 6.967-7.654 15.212-5.934 22.359 0.613 11.324 10.625 3.093 30.086-9.283 33.466-9.717 2.958-20.446-5.367-25.018-15.22-5.857-12.691-8.696-27.93-18.697-38.255-9.958-11.247-25.284-19.302-40.593-16.388-7.492 1.414-14.372 4.979-20.764 9.012z"/>
  <path d="m93.962 1143.9c-23.088-24.523-10.135-64.208 33.087-78.616 7.836-2.924 16.436-4.898 20.592-12.836 3.641-7.658 1e-3 -18.137-8.441-20.985-7.245-2.445-15.097 0.279-18.397 7.933-2.137 7.681 4.67 10.963 4.651 10.945 6.966 2.681 10.912-4.848 6.738-9.851 11.798 5.589-2.234 19.387-11.458 11.414-7.654-6.967-5.934-15.212 0.613-22.36 10.625-11.324 30.086-3.093 33.466 9.283 2.958 9.717-5.367 20.446-15.22 25.018-12.691 5.857-27.93 8.696-38.255 18.697-11.247 9.958-19.302 25.284-16.388 40.593 1.413 7.492 4.978 14.373 9.012 20.765z"/>
  <path d="m835.66 1891.6c-24.523 23.088-64.208 10.135-78.616-33.088-2.924-7.836-4.898-16.436-12.836-20.592-7.658-3.641-18.137-1e-3 -20.985 8.441-2.445 7.245 0.279 15.097 7.933 18.397 7.681 2.137 10.963-4.67 10.945-4.651 2.681-6.966-4.848-10.912-9.851-6.738 5.589-11.798 19.387 2.234 11.414 11.458-6.967 7.654-15.212 5.934-22.36-0.613-11.324-10.625-3.093-30.086 9.283-33.466 9.717-2.958 20.446 5.367 25.018 15.22 5.857 12.691 8.696 27.93 18.697 38.255 9.958 11.247 25.284 19.302 40.593 16.388 7.493-1.413 14.373-4.978 20.765-9.011z"/>
  <path d="m1583.3 1149.9c23.087 24.523 10.135 64.208-33.088 78.616-7.836 2.924-16.436 4.899-20.592 12.836-3.641 7.657-1e-3 18.137 8.441 20.985 7.245 2.445 15.097-0.279 18.397-7.933 2.137-7.681-4.67-10.963-4.651-10.945-6.966-2.681-10.912 4.848-6.738 9.85-11.798-5.589 2.234-19.387 11.458-11.414 7.654 6.967 5.934 15.212-0.613 22.359-10.625 11.324-30.086 3.093-33.466-9.283-2.958-9.717 5.367-20.446 15.22-25.018 12.691-5.857 27.93-8.696 38.255-18.697 11.247-9.958 19.302-25.284 16.388-40.593-1.413-7.49-4.977-14.371-9.011-20.763z"/>
  <path d="m838.64 486.15c-5.836 4.067-12.715 7.537-20.602 10.166-7.836 2.924-16.436 4.898-20.592 12.836-3.641 7.657-1e-3 18.137 8.441 20.985 7.245 2.445 15.097-0.279 18.397-7.933 2.137-7.681-4.67-10.963-4.651-10.945-6.966-2.681-10.912 4.848-6.738 9.851-11.798-5.589 2.234-19.387 11.458-11.414 7.654 6.967 5.934 15.212-0.613 22.36-10.625 11.324-30.086 3.093-33.466-9.283-2.958-9.717 5.367-20.446 15.22-25.018 10.731-4.952 23.283-7.747 33.146-14.538 9.863 6.791 22.415 9.586 33.146 14.538 9.854 4.572 18.178 15.301 15.22 25.018-3.38 12.376-22.841 20.607-33.466 9.283-6.547-7.148-8.267-15.392-0.613-22.36 9.224-7.972 23.256 5.826 11.458 11.414 4.174-5.003 0.228-12.531-6.738-9.851 0.019-0.018-6.788 3.265-4.651 10.945 3.3 7.654 11.151 10.378 18.397 7.933 8.442-2.849 12.081-13.328 8.441-20.985-4.155-7.937-12.756-9.912-20.592-12.836-7.887-2.629-14.766-6.1-20.602-10.166z"/>
  <path d="m1499.4 1146.9c-4.067-5.836-7.537-12.715-10.167-20.603-2.924-7.836-4.898-16.436-12.836-20.592-7.657-3.641-18.137-1e-3 -20.985 8.441-2.445 7.245 0.279 15.097 7.933 18.397 7.681 2.137 10.963-4.67 10.945-4.651 2.681-6.966-4.848-10.912-9.851-6.738 5.589-11.798 19.387 2.234 11.414 11.458-6.967 7.654-15.212 5.934-22.36-0.613-11.324-10.625-3.093-30.086 9.283-33.466 9.717-2.958 20.446 5.367 25.018 15.22 4.952 10.731 7.747 23.283 14.538 33.146-6.791 9.863-9.586 22.415-14.538 33.146-4.572 9.854-15.301 18.178-25.018 15.22-12.376-3.38-20.607-22.841-9.283-33.466 7.148-6.547 15.392-8.267 22.36-0.613 7.972 9.224-5.826 23.256-11.414 11.458 5.003 4.173 12.531 0.228 9.851-6.738 0.018 0.019-3.265-6.788-10.945-4.651-7.654 3.3-10.378 11.151-7.933 18.397 2.849 8.442 13.328 12.081 20.985 8.441 7.938-4.155 9.912-12.756 12.836-20.592 2.629-7.886 6.1-14.765 10.167-20.601z"/>
  <path d="m838.64 1807.7c5.836-4.067 12.715-7.537 20.603-10.167 7.836-2.924 16.436-4.898 20.592-12.836 3.641-7.657 1e-3 -18.137-8.441-20.985-7.245-2.445-15.097 0.279-18.397 7.933-2.137 7.681 4.67 10.963 4.651 10.945 6.966 2.681 10.912-4.848 6.738-9.85 11.798 5.589-2.234 19.387-11.458 11.414-7.654-6.967-5.934-15.212 0.613-22.36 10.625-11.324 30.086-3.093 33.466 9.283 2.958 9.717-5.367 20.446-15.22 25.018-10.731 4.952-23.283 7.747-33.146 14.538-9.863-6.791-22.415-9.586-33.146-14.538-9.853-4.572-18.178-15.301-15.22-25.018 3.381-12.376 22.841-20.607 33.466-9.283 6.547 7.148 8.267 15.392 0.613 22.36-9.224 7.972-23.256-5.826-11.458-11.414-4.173 5.003-0.228 12.531 6.738 9.85-0.019 0.018 6.788-3.265 4.651-10.945-3.3-7.654-11.151-10.378-18.397-7.933-8.442 2.849-12.081 13.328-8.441 20.985 4.155 7.937 12.756 9.912 20.592 12.836 7.885 2.63 14.765 6.101 20.601 10.167z"/>
  <path d="m177.88 1146.9c4.067 5.836 7.537 12.715 10.166 20.603 2.924 7.836 4.898 16.436 12.836 20.592 7.657 3.641 18.137 1e-3 20.985-8.441 2.445-7.245-0.279-15.097-7.933-18.397-7.681-2.137-10.963 4.67-10.945 4.651-2.681 6.966 4.848 10.912 9.851 6.738-5.589 11.798-19.387-2.234-11.414-11.458 6.967-7.654 15.212-5.934 22.36 0.613 11.324 10.625 3.093 30.086-9.283 33.466-9.717 2.958-20.446-5.367-25.018-15.22-4.952-10.731-7.747-23.283-14.538-33.146 6.791-9.863 9.586-22.415 14.538-33.146 4.572-9.854 15.301-18.178 25.018-15.22 12.376 3.38 20.607 22.841 9.283 33.466-7.148 6.547-15.392 8.267-22.36 0.613-7.972-9.224 5.826-23.256 11.414-11.458-5.003-4.173-12.531-0.228-9.851 6.738-0.018-0.02 3.265 6.788 10.945 4.651 7.654-3.3 10.378-11.151 7.933-18.397-2.849-8.442-13.328-12.081-20.985-8.441-7.937 4.155-9.912 12.756-12.836 20.592-2.629 7.885-6.099 14.764-10.166 20.601z"/>
  <path d="m561.82 463.01c-11.702-0.977-20.112-0.905-26.566 9.467-4.471 6.983-8.661 22.559-14.076 25.777-9.091 4.618-15.826-9.047-6.852-13.199 3.798-1.165 5.522 2.184 5.513 2.174 1.426 3.435-2.273 5.499-4.819 3.485 2.938 5.804 9.628-1.365 5.537-5.856-3.57-3.722-7.655-2.758-11.13 0.597-5.503 5.44-1.649 15.827 4.56 17.35 4.879 1.347 11.099-0.841 14.248-8.607 11.809-26.561 10.947-31.572 35.482-29.251l-1.897-1.937z"/>
  <path d="m154.74 1423.7c-0.977 11.702-0.905 20.112 9.467 26.566 6.983 4.471 22.559 8.661 25.777 14.076 4.618 9.092-9.048 15.827-13.199 6.852-1.165-3.798 2.184-5.522 2.174-5.513 3.435-1.426 5.499 2.273 3.485 4.819 5.804-2.938-1.365-9.628-5.856-5.537-3.722 3.57-2.758 7.655 0.597 11.13 5.44 5.502 15.827 1.649 17.35-4.56 1.347-4.879-0.841-11.099-8.607-14.248-26.561-11.809-31.572-10.947-29.251-35.482l-1.937 1.897z"/>
  <path d="m1115.5 1830.8c11.702 0.977 20.112 0.905 26.566-9.467 4.471-6.983 8.661-22.559 14.076-25.777 9.092-4.618 15.827 9.047 6.852 13.199-3.798 1.165-5.522-2.184-5.513-2.174-1.426-3.435 2.273-5.499 4.819-3.485-2.938-5.804-9.628 1.365-5.537 5.856 3.57 3.722 7.655 2.758 11.13-0.597 5.503-5.44 1.649-15.827-4.56-17.349-4.879-1.347-11.099 0.841-14.248 8.607-11.809 26.561-10.947 31.572-35.482 29.251l1.897 1.936z"/>
  <path d="m1522.5 870.09c0.977-11.702 0.905-20.112-9.467-26.566-6.983-4.471-22.559-8.661-25.777-14.076-4.618-9.092 9.047-15.826 13.199-6.852 1.165 3.798-2.184 5.522-2.174 5.513-3.435 1.426-5.499-2.273-3.485-4.819-5.804 2.938 1.365 9.628 5.856 5.537 3.722-3.57 2.758-7.655-0.597-11.13-5.44-5.503-15.827-1.649-17.35 4.56-1.347 4.879 0.841 11.099 8.608 14.248 26.561 11.809 31.572 10.947 29.251 35.482l1.936-1.897z"/>
  <path d="m1115.5 463.01c11.702-0.977 20.112-0.905 26.566 9.467 4.471 6.983 8.661 22.559 14.076 25.777 9.092 4.618 15.827-9.047 6.852-13.199-3.798-1.165-5.522 2.184-5.513 2.174-1.426 3.435 2.273 5.499 4.819 3.485-2.938 5.804-9.628-1.365-5.537-5.856 3.57-3.722 7.655-2.758 11.13 0.597 5.503 5.44 1.649 15.827-4.56 17.35-4.879 1.347-11.099-0.841-14.248-8.607-11.809-26.561-10.947-31.572-35.482-29.251l1.897-1.937z"/>
  <path d="m154.74 870.09c-0.977-11.702-0.905-20.112 9.467-26.566 6.983-4.471 22.559-8.661 25.777-14.076 4.618-9.092-9.048-15.826-13.199-6.852-1.165 3.798 2.184 5.522 2.174 5.513 3.435 1.426 5.499-2.273 3.485-4.819 5.804 2.938-1.365 9.628-5.856 5.537-3.722-3.57-2.758-7.655 0.597-11.13 5.44-5.503 15.827-1.649 17.35 4.56 1.347 4.879-0.841 11.099-8.607 14.248-26.561 11.809-31.572 10.947-29.251 35.482l-1.937-1.897z"/>
  <path d="m561.82 1830.8c-11.702 0.977-20.112 0.905-26.566-9.467-4.471-6.983-8.661-22.559-14.076-25.777-9.091-4.618-15.826 9.047-6.852 13.199 3.798 1.165 5.522-2.184 5.513-2.174 1.426-3.435-2.273-5.499-4.819-3.485 2.938-5.804 9.628 1.365 5.537 5.856-3.57 3.722-7.655 2.758-11.13-0.597-5.503-5.44-1.649-15.827 4.56-17.349 4.879-1.347 11.099 0.841 14.248 8.607 11.809 26.561 10.947 31.572 35.482 29.251l-1.897 1.936z"/>
  <path d="m1522.5 1423.7c0.977 11.702 0.905 20.112-9.467 26.566-6.983 4.471-22.559 8.661-25.777 14.076-4.618 9.092 9.047 15.827 13.199 6.852 1.165-3.798-2.184-5.522-2.174-5.513-3.435-1.426-5.499 2.273-3.485 4.819-5.804-2.938 1.365-9.628 5.856-5.537 3.722 3.57 2.758 7.655-0.597 11.13-5.44 5.502-15.827 1.649-17.35-4.56-1.347-4.879 0.841-11.099 8.608-14.248 26.561-11.809 31.572-10.947 29.251-35.482l1.936 1.897z"/>
  <path d="m569.85 463.08c-79.038-47.241-140.61 1-179.37-18.81 38.491 20.694 100.24-26.369 177.97 21.135l1.404-2.325z"/>
  <path d="m154.81 1415.7c-47.241 79.038 1 140.61-18.81 179.37 20.694-38.491-26.369-100.24 21.135-177.97l-2.325-1.404z"/>
  <path d="m1107.4 1830.7c79.038 47.241 140.61-1 179.37 18.81-38.491-20.694-100.24 26.369-177.97-21.135l-1.404 2.325z"/>
  <path d="m1522.5 878.12c47.241-79.038-1-140.61 18.81-179.37-20.693 38.491 26.369 100.24-21.135 177.97l2.325 1.404z"/>
  <path d="m1107.4 463.08c79.038-47.241 140.61 1 179.37-18.81-38.491 20.694-100.24-26.369-177.97 21.135l-1.404-2.325z"/>
  <path d="m154.81 878.12c-47.241-79.038 1-140.61-18.81-179.37 20.694 38.491-26.369 100.24 21.135 177.97l-2.325 1.404z"/>
  <path d="m569.85 1830.7c-79.038 47.241-140.61-1-179.37 18.81 38.491-20.694 100.24 26.369 177.97-21.135l1.404 2.325z"/>
  <path d="m1522.5 1415.7c47.241 79.038-1 140.61 18.81 179.37-20.693-38.491 26.369-100.24-21.135-177.97l2.325-1.404z"/>
  <path d="m573.72 551.73c4.361-9.358-4.726-20.495 16.862-21.241-8.624 5.324-5.534 12.137-12.15 15.79 6.933-2.941 5.563-8.758 12.709-15.588 0 0 2.207 0.842 1.47 8.859-0.736 8.018-12.052 7.109-18.891 12.18z" fill="#000400"/>
  <path d="m243.46 1411.8c-9.358-4.361-20.495 4.726-21.241-16.862 5.324 8.624 12.137 5.534 15.79 12.151-2.941-6.933-8.758-5.563-15.588-12.709 0 0 0.842-2.207 8.859-1.47s7.109 12.051 12.18 18.89z" fill="#000400"/>
  <path d="m1103.6 1742.1c-4.361 9.358 4.726 20.495-16.862 21.241 8.624-5.324 5.534-12.137 12.15-15.79-6.933 2.94-5.563 8.758-12.709 15.588 0 0-2.207-0.842-1.47-8.859 0.737-8.018 12.053-7.109 18.891-12.18z" fill="#000400"/>
  <path d="m1433.8 881.99c9.358 4.361 20.495-4.726 21.241 16.862-5.324-8.624-12.137-5.534-15.79-12.15 2.941 6.933 8.758 5.563 15.588 12.709 0 0-0.842 2.207-8.859 1.47s-7.109-12.052-12.18-18.891z" fill="#000400"/>
  <path d="m1103.6 551.73c-4.361-9.358 4.726-20.495-16.862-21.241 8.624 5.324 5.534 12.137 12.15 15.79-6.933-2.941-5.563-8.758-12.709-15.588 0 0-2.207 0.842-1.47 8.859 0.737 8.018 12.053 7.109 18.891 12.18z" fill="#000400"/>
  <path d="m243.46 881.99c-9.358 4.361-20.495-4.726-21.241 16.862 5.324-8.624 12.137-5.534 15.79-12.15-2.941 6.933-8.758 5.563-15.588 12.709 0 0 0.842 2.207 8.859 1.47s7.109-12.052 12.18-18.891z" fill="#000400"/>
  <path d="m573.72 1742.1c4.361 9.358-4.726 20.495 16.862 21.241-8.624-5.324-5.534-12.137-12.15-15.79 6.933 2.94 5.563 8.758 12.709 15.588 0 0 2.207-0.842 1.47-8.859-0.736-8.018-12.052-7.109-18.891-12.18z" fill="#000400"/>
  <path d="m1433.8 1411.8c9.358-4.361 20.495 4.726 21.241-16.862-5.324 8.624-12.137 5.534-15.79 12.151 2.941-6.933 8.758-5.563 15.588-12.709 0 0-0.842-2.207-8.859-1.47-8.017 0.736-7.109 12.051-12.18 18.89z" fill="#000400"/>
  <path d="m546.35 553.35c3.711-9.926-4.029-21.777 14.373-22.57-7.35 5.657-4.717 12.896-10.357 16.778 5.91-3.124 4.742-9.306 10.833-16.563 0 0 1.881 0.895 1.253 9.413s-10.273 7.553-16.102 12.942z" fill="#000400"/>
  <path d="m245.08 1439.2c-9.926-3.711-21.777 4.029-22.57-14.373 5.657 7.35 12.896 4.717 16.778 10.357-3.124-5.91-9.306-4.742-16.563-10.833 0 0 0.895-1.881 9.413-1.253 8.518 0.629 7.553 10.274 12.942 16.102z" fill="#000400"/>
  <path d="m1130.9 1740.5c-3.711 9.926 4.029 21.777-14.373 22.57 7.35-5.657 4.717-12.896 10.357-16.778-5.91 3.125-4.742 9.306-10.833 16.563 0 0-1.881-0.895-1.253-9.413s10.273-7.553 16.102-12.942z" fill="#000400"/>
  <path d="m1432.2 854.62c9.926 3.711 21.777-4.029 22.57 14.373-5.657-7.35-12.896-4.717-16.778-10.357 3.124 5.91 9.306 4.742 16.563 10.833 0 0-0.895 1.881-9.413 1.253-8.519-0.629-7.554-10.274-12.942-16.102z" fill="#000400"/>
  <path d="m1130.9 553.35c-3.711-9.926 4.029-21.777-14.373-22.57 7.35 5.657 4.717 12.896 10.357 16.778-5.91-3.124-4.742-9.306-10.833-16.563 0 0-1.881 0.895-1.253 9.413s10.273 7.553 16.102 12.942z" fill="#000400"/>
  <path d="m245.08 854.62c-9.926 3.711-21.777-4.029-22.57 14.373 5.657-7.35 12.896-4.717 16.778-10.357-3.124 5.91-9.306 4.742-16.563 10.833 0 0 0.895 1.881 9.413 1.253 8.518-0.629 7.553-10.274 12.942-16.102z" fill="#000400"/>
  <path d="m546.35 1740.5c3.711 9.926-4.029 21.777 14.373 22.57-7.35-5.657-4.717-12.896-10.357-16.778 5.91 3.125 4.742 9.306 10.833 16.563 0 0 1.881-0.895 1.253-9.413s-10.273-7.553-16.102-12.942z" fill="#000400"/>
  <path d="m1432.2 1439.2c9.926-3.711 21.777 4.029 22.57-14.373-5.657 7.35-12.896 4.717-16.778 10.357 3.124-5.91 9.306-4.742 16.563-10.833 0 0-0.895-1.881-9.413-1.253s-7.554 10.274-12.942 16.102z" fill="#000400"/>
  <path d="m584.73 499.87c4.04 10.522-4.383 23.107 15.664 23.948-8.011-6.003-5.141-13.684-11.287-17.803 6.441 3.315 5.168 9.874 11.806 17.575 0 0 2.05-0.949 1.365-9.988s-11.196-8.015-17.548-13.732z" fill="#000400"/>
  <path d="m191.6 1400.8c10.522-4.04 23.107 4.383 23.948-15.664-6.003 8.01-13.684 5.141-17.803 11.287 3.315-6.441 9.874-5.168 17.575-11.806 0 0-0.949-2.05-9.988-1.366-9.038 0.685-8.015 11.196-13.732 17.549z" fill="#000400"/>
  <path d="m1092.6 1793.9c-4.04-10.522 4.383-23.107-15.664-23.948 8.011 6.003 5.141 13.683 11.287 17.803-6.441-3.315-5.168-9.874-11.806-17.575 0 0-2.05 0.949-1.365 9.988 0.684 9.039 11.196 8.015 17.548 13.732z" fill="#000400"/>
  <path d="m1485.7 893c-10.522 4.04-23.107-4.383-23.948 15.664 6.003-8.01 13.683-5.141 17.803-11.287-3.315 6.441-9.874 5.168-17.575 11.806 0 0 0.949 2.05 9.988 1.366 9.038-0.685 8.014-11.196 13.732-17.549z" fill="#000400"/>
  <path d="m1092.6 499.87c-4.04 10.522 4.383 23.107-15.664 23.948 8.011-6.003 5.141-13.684 11.287-17.803-6.441 3.315-5.168 9.874-11.806 17.575 0 0-2.05-0.949-1.365-9.988s11.196-8.015 17.548-13.732z" fill="#000400"/>
  <path d="m191.6 893c10.522 4.04 23.107-4.383 23.948 15.664-6.003-8.01-13.684-5.141-17.803-11.287 3.315 6.441 9.874 5.168 17.575 11.806 0 0-0.949 2.05-9.988 1.366-9.038-0.685-8.015-11.196-13.732-17.549z" fill="#000400"/>
  <path d="m584.73 1793.9c4.04-10.522-4.383-23.107 15.664-23.948-8.011 6.003-5.141 13.683-11.287 17.803 6.441-3.315 5.168-9.874 11.806-17.575 0 0 2.05 0.949 1.365 9.988s-11.196 8.015-17.548 13.732z" fill="#000400"/>
  <path d="m1485.7 1400.8c-10.522-4.04-23.107 4.383-23.948-15.664 6.003 8.01 13.683 5.141 17.803 11.287-3.315-6.441-9.874-5.168-17.575-11.806 0 0 0.949-2.05 9.988-1.366 9.038 0.685 8.014 11.196 13.732 17.549z" fill="#000400"/>
  <path d="m556.92 504.44c3.776 10.1-4.089 22.159 14.624 22.965-7.479-5.756-4.8-13.122-10.538-17.072 6.013 3.179 4.825 9.469 11.022 16.853 0 0 1.914-0.91 1.275-9.578-0.638-8.667-10.452-7.685-16.383-13.168z" fill="#000400"/>
  <path d="m196.18 1428.6c10.1-3.776 22.158 4.089 22.965-14.624-5.756 7.479-13.122 4.8-17.072 10.538 3.179-6.013 9.469-4.825 16.853-11.022 0 0-0.91-1.914-9.578-1.275s-7.685 10.452-13.168 16.383z" fill="#000400"/>
  <path d="m1120.4 1789.4c-3.776-10.1 4.089-22.159-14.624-22.965 7.479 5.756 4.8 13.122 10.538 17.072-6.013-3.179-4.825-9.469-11.022-16.853 0 0-1.914 0.91-1.275 9.578s10.452 7.685 16.383 13.168z" fill="#000400"/>
  <path d="m1481.1 865.18c-10.1 3.776-22.158-4.089-22.965 14.624 5.756-7.479 13.122-4.8 17.072-10.538-3.179 6.013-9.469 4.825-16.853 11.022 0 0 0.91 1.914 9.578 1.275 8.667-0.639 7.686-10.452 13.168-16.383z" fill="#000400"/>
  <path d="m1120.4 504.44c-3.776 10.1 4.089 22.159-14.624 22.965 7.479-5.756 4.8-13.122 10.538-17.072-6.013 3.179-4.825 9.469-11.022 16.853 0 0-1.914-0.91-1.275-9.578s10.452-7.685 16.383-13.168z" fill="#000400"/>
  <path d="m196.18 865.18c10.1 3.776 22.158-4.089 22.965 14.624-5.756-7.479-13.122-4.8-17.072-10.538 3.179 6.013 9.469 4.825 16.853 11.022 0 0-0.91 1.914-9.578 1.275-8.667-0.639-7.685-10.452-13.168-16.383z" fill="#000400"/>
  <path d="m556.92 1789.4c3.776-10.1-4.089-22.159 14.624-22.965-7.479 5.756-4.8 13.122-10.538 17.072 6.013-3.179 4.825-9.469 11.022-16.853 0 0 1.914 0.91 1.275 9.578-0.638 8.667-10.452 7.685-16.383 13.168z" fill="#000400"/>
  <path d="m1481.1 1428.6c-10.1-3.776-22.158 4.089-22.965-14.624 5.756 7.479 13.122 4.8 17.072 10.538-3.179-6.013-9.469-4.825-16.853-11.022 0 0 0.91-1.914 9.578-1.275s7.686 10.452 13.168 16.383z" fill="#000400"/>
  <path d="m512.54 512.91c11.055 7.101 12.168 24.616 31.03 11.74-11.499-0.16-14.259-9.303-22.742-8.971 8.188-1.285 11.618 5.72 23.055 8.404 0 0 1.204-2.285-5.745-10.278s-15.809 0.128-25.598-0.895z" fill="#000400"/>
  <path d="m204.64 1473c7.101-11.055 24.616-12.168 11.74-31.03-0.16 11.499-9.303 14.259-8.971 22.741-1.285-8.188 5.72-11.618 8.404-23.055 0 0-2.285-1.204-10.277 5.745-7.993 6.949 0.127 15.81-0.896 25.599z" fill="#000400"/>
  <path d="m1164.7 1780.9c-11.055-7.101-12.168-24.616-31.03-11.74 11.499 0.16 14.259 9.303 22.742 8.971-8.188 1.285-11.618-5.72-23.055-8.404 0 0-1.204 2.285 5.745 10.277 6.949 7.993 15.81-0.126 25.598 0.896z" fill="#000400"/>
  <path d="m1472.6 820.81c-7.101 11.055-24.616 12.168-11.74 31.03 0.16-11.499 9.303-14.259 8.971-22.742 1.285 8.188-5.72 11.618-8.404 23.055 0 0 2.285 1.204 10.277-5.745 7.992-6.948-0.127-15.809 0.896-25.598z" fill="#000400"/>
  <path d="m1164.7 512.91c-11.055 7.101-12.168 24.616-31.03 11.74 11.499-0.16 14.259-9.303 22.742-8.971-8.188-1.285-11.618 5.72-23.055 8.404 0 0-1.204-2.285 5.745-10.278 6.949-7.992 15.81 0.128 25.598-0.895z" fill="#000400"/>
  <path d="m204.64 820.81c7.101 11.055 24.616 12.168 11.74 31.03-0.16-11.499-9.303-14.259-8.971-22.742-1.285 8.188 5.72 11.618 8.404 23.055 0 0-2.285 1.204-10.277-5.745s0.127-15.809-0.896-25.598z" fill="#000400"/>
  <path d="m512.54 1780.9c11.055-7.101 12.168-24.616 31.03-11.74-11.499 0.16-14.259 9.303-22.742 8.971 8.188 1.285 11.618-5.72 23.055-8.404 0 0 1.204 2.285-5.745 10.277-6.948 7.993-15.809-0.126-25.598 0.896z" fill="#000400"/>
  <path d="m1472.6 1473c-7.101-11.055-24.616-12.168-11.74-31.03 0.16 11.499 9.303 14.259 8.971 22.741 1.285-8.188-5.72-11.618-8.404-23.055 0 0 2.285-1.204 10.277 5.745s-0.127 15.81 0.896 25.599z" fill="#000400"/>
  <path d="m641.68 367.04c11.055 7.101 12.168 24.616 31.03 11.74-11.499-0.16-14.259-9.303-22.742-8.971 8.188-1.285 11.618 5.72 23.055 8.404 0 0 1.204-2.285-5.745-10.277-6.948-7.993-15.809 0.127-25.598-0.896z" fill="#000400"/>
  <path d="m58.769 1343.9c7.101-11.055 24.616-12.168 11.74-31.03-0.16 11.499-9.303 14.259-8.971 22.742-1.285-8.188 5.72-11.618 8.404-23.055 0 0-2.285-1.204-10.278 5.745-7.992 6.948 0.128 15.809-0.895 25.598z" fill="#000400"/>
  <path d="m1035.6 1926.8c-11.055-7.101-12.168-24.616-31.03-11.74 11.499 0.16 14.259 9.303 22.742 8.971-8.188 1.285-11.618-5.72-23.055-8.404 0 0-1.204 2.285 5.745 10.278 6.948 7.992 15.809-0.128 25.598 0.895z" fill="#000400"/>
  <path d="m1618.5 949.94c-7.101 11.055-24.616 12.168-11.74 31.03 0.16-11.499 9.303-14.259 8.971-22.742 1.285 8.188-5.72 11.618-8.404 23.055 0 0 2.285 1.204 10.278-5.745s-0.127-15.81 0.895-25.598z" fill="#000400"/>
  <path d="m1035.6 367.04c-11.055 7.101-12.168 24.616-31.03 11.74 11.499-0.16 14.259-9.303 22.742-8.971-8.188-1.285-11.618 5.72-23.055 8.404 0 0-1.204-2.285 5.745-10.277 6.948-7.993 15.809 0.127 25.598-0.896z" fill="#000400"/>
  <path d="m58.769 949.94c7.101 11.055 24.616 12.168 11.74 31.03-0.16-11.499-9.303-14.259-8.971-22.742-1.285 8.188 5.72 11.618 8.404 23.055 0 0-2.285 1.204-10.278-5.745-7.992-6.949 0.128-15.81-0.895-25.598z" fill="#000400"/>
  <path d="m641.68 1926.8c11.055-7.101 12.168-24.616 31.03-11.74-11.499 0.16-14.259 9.303-22.742 8.971 8.188 1.285 11.618-5.72 23.055-8.404 0 0 1.204 2.285-5.745 10.278s-15.809-0.128-25.598 0.895z" fill="#000400"/>
  <path d="m1618.5 1343.9c-7.101-11.055-24.616-12.168-11.74-31.03 0.16 11.499 9.303 14.259 8.971 22.742 1.285-8.188-5.72-11.618-8.404-23.055 0 0 2.285-1.204 10.278 5.745s-0.127 15.809 0.895 25.598z" fill="#000400"/>
  <path d="m659.69 408.05c12.102-5.118 27.188 3.836 27.205-18.989-6.622 9.402-15.728 6.52-20.241 13.71 3.56-7.485 11.279-6.362 19.95-14.289 0 0-1.207-2.284-11.727-1.058-10.52 1.225-8.818 13.123-15.187 20.626z" fill="#000400"/>
  <path d="m99.785 1325.9c-5.118-12.102 3.836-27.188-18.989-27.205 9.402 6.622 6.52 15.728 13.71 20.241-7.485-3.56-6.362-11.28-14.289-19.95 0 0-2.284 1.207-1.058 11.726 1.225 10.52 13.122 8.819 20.626 15.188z" fill="#000400"/>
  <path d="m1017.6 1885.8c-12.102 5.118-27.188-3.836-27.205 18.989 6.622-9.402 15.728-6.521 20.241-13.71-3.56 7.485-11.279 6.362-19.95 14.289 0 0 1.207 2.283 11.727 1.058 10.519-1.225 8.818-13.123 15.187-20.626z" fill="#000400"/>
  <path d="m1577.5 967.96c5.118 12.102-3.836 27.188 18.989 27.205-9.402-6.622-6.52-15.728-13.71-20.241 7.485 3.56 6.362 11.279 14.289 19.95 0 0 2.283-1.207 1.058-11.727s-13.123-8.818-20.626-15.187z" fill="#000400"/>
  <path d="m1017.6 408.05c-12.102-5.118-27.188 3.836-27.205-18.989 6.622 9.402 15.728 6.52 20.241 13.71-3.56-7.485-11.279-6.362-19.95-14.289 0 0 1.207-2.284 11.727-1.058 10.519 1.225 8.818 13.123 15.187 20.626z" fill="#000400"/>
  <path d="m99.785 967.96c-5.118 12.102 3.836 27.188-18.989 27.205 9.402-6.622 6.52-15.728 13.71-20.241-7.485 3.56-6.362 11.279-14.289 19.95 0 0-2.284-1.207-1.058-11.727 1.225-10.519 13.122-8.818 20.626-15.187z" fill="#000400"/>
  <path d="m659.69 1885.8c12.102 5.118 27.188-3.836 27.205 18.989-6.622-9.402-15.728-6.521-20.241-13.71 3.56 7.485 11.279 6.362 19.95 14.289 0 0-1.207 2.283-11.727 1.058s-8.818-13.123-15.187-20.626z" fill="#000400"/>
  <path d="m1577.5 1325.9c5.118-12.102-3.836-27.188 18.989-27.205-9.402 6.622-6.52 15.728-13.71 20.241 7.485-3.56 6.362-11.28 14.289-19.95 0 0 2.283 1.207 1.058 11.726s-13.123 8.819-20.626 15.188z" fill="#000400"/>
  <path d="m755.3 491.58c-1.349-9.004-12.096-14.686 1.391-22.947-3.164 7.314 1.831 11.655-0.788 16.922 3.138-4.811-0.316-8.968 1.235-16.959 0 0 1.786-0.112 4.865 6.55 3.078 6.661-4.57 9.956-6.703 16.434z" fill="#000400"/>
  <path d="m183.32 1230.3c-9.004 1.349-14.686 12.096-22.947-1.391 7.314 3.164 11.655-1.831 16.922 0.788-4.811-3.138-8.968 0.316-16.959-1.235 0 0-0.112-1.786 6.55-4.865 6.661-3.079 9.956 4.569 16.434 6.703z" fill="#000400"/>
  <path d="m921.99 1802.2c1.349 9.004 12.096 14.686-1.391 22.947 3.164-7.314-1.831-11.655 0.788-16.922-3.138 4.811 0.316 8.968-1.235 16.959 0 0-1.786 0.112-4.865-6.55-3.079-6.661 4.57-9.956 6.703-16.434z" fill="#000400"/>
  <path d="m1494 1063.6c9.004-1.349 14.686-12.096 22.947 1.391-7.314-3.164-11.655 1.831-16.922-0.788 4.811 3.138 8.968-0.316 16.959 1.235 0 0 0.112 1.786-6.55 4.865-6.661 3.079-9.956-4.569-16.434-6.703z" fill="#000400"/>
  <path d="m921.99 491.58c1.349-9.004 12.096-14.686-1.391-22.947 3.164 7.314-1.831 11.655 0.788 16.922-3.138-4.811 0.316-8.968-1.235-16.959 0 0-1.786-0.112-4.865 6.55-3.079 6.661 4.57 9.956 6.703 16.434z" fill="#000400"/>
  <path d="m183.32 1063.6c-9.004-1.349-14.686-12.096-22.947 1.391 7.314-3.164 11.655 1.831 16.922-0.788-4.811 3.138-8.968-0.316-16.959 1.235 0 0-0.112 1.786 6.55 4.865 6.661 3.079 9.956-4.569 16.434-6.703z" fill="#000400"/>
  <path d="m755.3 1802.2c-1.349 9.004-12.096 14.686 1.391 22.947-3.164-7.314 1.831-11.655-0.788-16.922 3.138 4.811-0.316 8.968 1.235 16.959 0 0 1.786 0.112 4.865-6.55 3.078-6.661-4.57-9.956-6.703-16.434z" fill="#000400"/>
  <path d="m1494 1230.3c9.004 1.349 14.686 12.096 22.947-1.391-7.314 3.164-11.655-1.831-16.922 0.788 4.811-3.138 8.968 0.316 16.959-1.235 0 0 0.112-1.786-6.55-4.865-6.661-3.079-9.956 4.569-16.434 6.703z" fill="#000400"/>
  <path d="m761.77 498.06c9.004 1.349 14.686 12.096 22.947-1.391-7.314 3.164-11.655-1.831-16.922 0.788 4.811-3.138 8.968 0.316 16.959-1.235 0 0 0.112-1.786-6.55-4.865-6.661-3.079-9.956 4.569-16.434 6.703z" fill="#000400"/>
  <path d="m189.79 1223.8c1.349-9.004 12.096-14.686-1.391-22.947 3.164 7.314-1.831 11.655 0.788 16.922-3.138-4.811 0.316-8.968-1.235-16.959 0 0-1.786-0.112-4.865 6.55-3.079 6.661 4.57 9.956 6.703 16.434z" fill="#000400"/>
  <path d="m915.51 1795.8c-9.004-1.349-14.686-12.096-22.947 1.391 7.314-3.164 11.655 1.831 16.922-0.788-4.811 3.138-8.968-0.316-16.959 1.235 0 0-0.112 1.786 6.55 4.865s9.957-4.569 16.434-6.703z" fill="#000400"/>
  <path d="m1487.5 1070c-1.349 9.004-12.096 14.686 1.391 22.947-3.164-7.314 1.831-11.655-0.788-16.922 3.138 4.811-0.316 8.968 1.235 16.959 0 0 1.786 0.112 4.865-6.55 3.078-6.661-4.57-9.956-6.703-16.434z" fill="#000400"/>
  <path d="m915.51 498.06c-9.004 1.349-14.686 12.096-22.947-1.391 7.314 3.164 11.655-1.831 16.922 0.788-4.811-3.138-8.968 0.316-16.959-1.235 0 0-0.112-1.786 6.55-4.865 6.661-3.079 9.957 4.569 16.434 6.703z" fill="#000400"/>
  <path d="m189.79 1070c1.349 9.004 12.096 14.686-1.391 22.947 3.164-7.314-1.831-11.655 0.788-16.922-3.138 4.811 0.316 8.968-1.235 16.959 0 0-1.786 0.112-4.865-6.55-3.079-6.661 4.57-9.956 6.703-16.434z" fill="#000400"/>
  <path d="m761.77 1795.8c9.004-1.349 14.686-12.096 22.947 1.391-7.314-3.164-11.655 1.831-16.922-0.788 4.811 3.138 8.968-0.316 16.959 1.235 0 0 0.112 1.786-6.55 4.865-6.661 3.079-9.956-4.569-16.434-6.703z" fill="#000400"/>
  <path d="m1487.5 1223.8c-1.349-9.004-12.096-14.686 1.391-22.947-3.164 7.314 1.831 11.655-0.788 16.922 3.138-4.811-0.316-8.968 1.235-16.959 0 0 1.786-0.112 4.865 6.55 3.078 6.661-4.57 9.956-6.703 16.434z" fill="#000400"/>
  <path d="m604.75 411.22c-10.986-7.207-27.437-1.096-23.353-23.565 4.826 10.439 14.301 9.238 17.45 17.121-2.159-8.003-9.954-8.284-17.06-17.638 0 0 1.597-2.03 11.726 1.064s6.319 14.493 11.237 23.018z" fill="#000400"/>
  <path d="m102.95 1380.8c-7.207 10.986-1.096 27.437-23.565 23.353 10.439-4.826 9.238-14.301 17.121-17.45-8.003 2.159-8.284 9.954-17.638 17.06 0 0-2.03-1.597 1.064-11.726s14.493-6.319 23.018-11.237z" fill="#000400"/>
  <path d="m1072.5 1882.6c10.986 7.207 27.438 1.096 23.353 23.565-4.826-10.439-14.302-9.238-17.45-17.121 2.159 8.003 9.954 8.284 17.06 17.638 0 0-1.597 2.03-11.726-1.064s-6.318-14.493-11.237-23.018z" fill="#000400"/>
  <path d="m1574.3 913.02c7.207-10.986 1.096-27.437 23.565-23.353-10.439 4.826-9.238 14.301-17.121 17.45 8.003-2.159 8.284-9.954 17.638-17.06 0 0 2.03 1.597-1.064 11.726s-14.493 6.319-23.018 11.237z" fill="#000400"/>
  <path d="m1072.5 411.22c10.986-7.207 27.438-1.096 23.353-23.565-4.826 10.439-14.302 9.238-17.45 17.121 2.159-8.003 9.954-8.284 17.06-17.638 0 0-1.597-2.03-11.726 1.064s-6.318 14.493-11.237 23.018z" fill="#000400"/>
  <path d="m102.95 913.02c-7.207-10.986-1.096-27.437-23.565-23.353 10.439 4.826 9.238 14.301 17.121 17.45-8.003-2.159-8.284-9.954-17.638-17.06 0 0-2.03 1.597 1.064 11.726s14.493 6.319 23.018 11.237z" fill="#000400"/>
  <path d="m604.75 1882.6c-10.986 7.207-27.437 1.096-23.353 23.565 4.826-10.439 14.301-9.238 17.45-17.121-2.159 8.003-9.954 8.284-17.06 17.638 0 0 1.597 2.03 11.726-1.064s6.319-14.493 11.237-23.018z" fill="#000400"/>
  <path d="m1574.3 1380.8c7.207 10.986 1.096 27.437 23.565 23.353-10.439-4.826-9.238-14.301-17.121-17.45 8.003 2.159 8.284 9.954 17.638 17.06 0 0 2.03-1.597-1.064-11.726s-14.493-6.319-23.018-11.237z" fill="#000400"/>
  <path d="m397.88 475.65c4.915-10.546-5.326-23.098 19.004-23.939-9.719 6-6.237 13.678-13.694 17.796 7.814-3.314 6.27-9.871 14.323-17.568 0 0 2.487 0.949 1.657 9.984-0.831 9.036-13.583 8.012-21.29 13.727z" fill="#000400"/>
  <path d="m167.39 1587.7c-10.546-4.915-23.098 5.326-23.939-19.004 6 9.719 13.678 6.237 17.796 13.694-3.314-7.814-9.871-6.27-17.568-14.323 0 0 0.949-2.487 9.984-1.657s8.012 13.583 13.727 21.29z" fill="#000400"/>
  <path d="m1279.4 1818.2c-4.915 10.546 5.326 23.098-19.004 23.939 9.719-6 6.237-13.678 13.694-17.796-7.814 3.314-6.27 9.871-14.323 17.568 0 0-2.487-0.949-1.657-9.984 0.83-9.036 13.583-8.012 21.29-13.727z" fill="#000400"/>
  <path d="m1509.9 706.14c10.546 4.915 23.098-5.326 23.939 19.004-6-9.719-13.678-6.237-17.796-13.694 3.314 7.814 9.871 6.27 17.568 14.323 0 0-0.949 2.487-9.984 1.657-9.036-0.83-8.012-13.583-13.727-21.29z" fill="#000400"/>
  <path d="m1279.4 475.65c-4.915-10.546 5.326-23.098-19.004-23.939 9.719 6 6.237 13.678 13.694 17.796-7.814-3.314-6.27-9.871-14.323-17.568 0 0-2.487 0.949-1.657 9.984 0.83 9.036 13.583 8.012 21.29 13.727z" fill="#000400"/>
  <path d="m167.39 706.14c-10.546 4.915-23.098-5.326-23.939 19.004 6-9.719 13.678-6.237 17.796-13.694-3.314 7.814-9.871 6.27-17.568 14.323 0 0 0.949 2.487 9.984 1.657s8.012-13.583 13.727-21.29z" fill="#000400"/>
  <path d="m397.88 1818.2c4.915 10.546-5.326 23.098 19.004 23.939-9.719-6-6.237-13.678-13.694-17.796 7.814 3.314 6.27 9.871 14.323 17.568 0 0 2.487-0.949 1.657-9.984-0.831-9.036-13.583-8.012-21.29-13.727z" fill="#000400"/>
  <path d="m1509.9 1587.7c10.546-4.915 23.098 5.326 23.939-19.004-6 9.719-13.678 6.237-17.796 13.694 3.314-7.814 9.871-6.27 17.568-14.323 0 0-0.949-2.487-9.984-1.657s-8.012 13.583-13.727 21.29z" fill="#000400"/>
  <path d="m410.82 419.28c4.592 11.96-4.983 26.267 17.805 27.223-9.106-6.823-5.844-15.555-12.83-20.237 7.321 3.769 5.874 11.225 13.42 19.978 0 0 2.331-1.079 1.552-11.354-0.777-10.275-12.726-9.111-19.947-15.61z" fill="#000400"/>
  <path d="m111.01 1574.7c11.96-4.592 26.267 4.983 27.223-17.806-6.823 9.106-15.555 5.844-20.237 12.83 3.769-7.321 11.225-5.874 19.978-13.42 0 0-1.079-2.331-11.354-1.552s-9.111 12.727-15.61 19.948z" fill="#000400"/>
  <path d="m1266.5 1874.5c-4.592-11.96 4.983-26.267-17.805-27.223 9.106 6.823 5.844 15.555 12.83 20.237-7.321-3.769-5.874-11.225-13.42-19.978 0 0-2.33 1.079-1.552 11.354s12.726 9.111 19.947 15.61z" fill="#000400"/>
  <path d="m1566.3 719.09c-11.96 4.592-26.267-4.983-27.223 17.805 6.823-9.106 15.555-5.844 20.237-12.83-3.769 7.321-11.225 5.874-19.978 13.42 0 0 1.079 2.331 11.354 1.552 10.274-0.778 9.11-12.726 15.61-19.947z" fill="#000400"/>
  <path d="m1266.5 419.28c-4.592 11.96 4.983 26.267-17.805 27.223 9.106-6.823 5.844-15.555 12.83-20.237-7.321 3.769-5.874 11.225-13.42 19.978 0 0-2.33-1.079-1.552-11.354s12.726-9.111 19.947-15.61z" fill="#000400"/>
  <path d="m111.01 719.09c11.96 4.592 26.267-4.983 27.223 17.805-6.823-9.106-15.555-5.844-20.237-12.83 3.769 7.321 11.225 5.874 19.978 13.42 0 0-1.079 2.331-11.354 1.552-10.275-0.778-9.111-12.726-15.61-19.947z" fill="#000400"/>
  <path d="m410.82 1874.5c4.592-11.96-4.983-26.267 17.805-27.223-9.106 6.823-5.844 15.555-12.83 20.237 7.321-3.769 5.874-11.225 13.42-19.978 0 0 2.331 1.079 1.552 11.354-0.777 10.275-12.726 9.111-19.947 15.61z" fill="#000400"/>
  <path d="m1566.3 1574.7c-11.96-4.592-26.267 4.983-27.223-17.806 6.823 9.106 15.555 5.844 20.237 12.83-3.769-7.321-11.225-5.874-19.978-13.42 0 0 1.079-2.331 11.354-1.552 10.274 0.779 9.11 12.727 15.61 19.948z" fill="#000400"/>
  <path d="m352.28 415.52c12.956 14.949 7.132 40.723 39.843 30.127-16.543-5.111-16.651-19.49-29.045-22.609 12.374 1.618 14.356 13.193 29.738 21.923 0 0 2.709-2.79-3.937-17.284s-22.892-6.525-36.599-12.157z" fill="#000400"/>
  <path d="m107.25 1633.3c14.949-12.956 40.723-7.132 30.127-39.843-5.111 16.544-19.49 16.651-22.609 29.045 1.618-12.374 13.193-14.356 21.923-29.738 0 0-2.79-2.709-17.284 3.938-14.495 6.646-6.526 22.892-12.157 36.598z" fill="#000400"/>
  <path d="m1325 1878.3c-12.956-14.949-7.132-40.723-39.843-30.127 16.543 5.111 16.651 19.49 29.045 22.609-12.374-1.618-14.356-13.193-29.738-21.923 0 0-2.709 2.79 3.938 17.284 6.646 14.494 22.892 6.525 36.598 12.157z" fill="#000400"/>
  <path d="m1570 660.55c-14.949 12.956-40.723 7.132-30.127 39.843 5.111-16.544 19.49-16.651 22.609-29.045-1.618 12.374-13.193 14.356-21.923 29.738 0 0 2.79 2.709 17.284-3.937s6.526-22.893 12.157-36.599z" fill="#000400"/>
  <path d="m1325 415.52c-12.956 14.949-7.132 40.723-39.843 30.127 16.543-5.111 16.651-19.49 29.045-22.609-12.374 1.618-14.356 13.193-29.738 21.923 0 0-2.709-2.79 3.938-17.284 6.646-14.494 22.892-6.525 36.598-12.157z" fill="#000400"/>
  <path d="m107.25 660.55c14.949 12.956 40.723 7.132 30.127 39.843-5.111-16.544-19.49-16.651-22.609-29.045 1.618 12.374 13.193 14.356 21.923 29.738 0 0-2.79 2.709-17.284-3.937-14.495-6.647-6.526-22.893-12.157-36.599z" fill="#000400"/>
  <path d="m352.28 1878.3c12.956-14.949 7.132-40.723 39.843-30.127-16.543 5.111-16.651 19.49-29.045 22.609 12.374-1.618 14.356-13.193 29.738-21.923 0 0 2.709 2.79-3.937 17.284s-22.892 6.525-36.599 12.157z" fill="#000400"/>
  <path d="m1570 1633.3c-14.949-12.956-40.723-7.132-30.127-39.843 5.111 16.544 19.49 16.651 22.609 29.045-1.618-12.374-13.193-14.356-21.923-29.738 0 0 2.79-2.709 17.284 3.938 14.495 6.646 6.526 22.892 12.157 36.598z" fill="#000400"/>
 </g>
 <g transform="translate(0 -308.27)">
  <path d="m135.15 443.42c38.033 1.396 69.321 13.208 92.31 0.848-23.407 11.965-55.137-0.893-94.01-2.547 1.655 38.873 14.512 70.603 2.547 94.01 12.361-22.991 0.549-54.279-0.847-92.311z"/>
  <path d="m1542.1 443.42c-1.396 38.033-13.208 69.321-0.848 92.31-11.964-23.407 0.893-55.137 2.547-94.01-38.873 1.655-70.603 14.512-94.01 2.547 22.99 12.361 54.278 0.549 92.311-0.847z"/>
  <path d="m1542.1 1850.4c-38.033-1.396-69.321-13.208-92.31-0.848 23.407-11.965 55.137 0.893 94.01 2.547-1.655-38.873-14.512-70.603-2.547-94.01-12.361 22.991-0.55 54.279 0.847 92.311z"/>
  <path d="m135.15 1850.4c1.396-38.033 13.208-69.321 0.848-92.31 11.965 23.407-0.893 55.137-2.547 94.01 38.873-1.655 70.603-14.512 94.01-2.547-22.99-12.361-54.278-0.549-92.311 0.847z"/>
  <path d="m220.06 475.65c-7.707-5.715-20.46-4.692-21.291-13.727s1.657-9.984 1.657-9.984c8.054 7.697 6.509 14.254 14.323 17.568-7.456-4.117-3.975-11.796-13.694-17.796 24.331 0.842 14.09 13.393 19.005 23.939z" fill="#000400"/>
  <path d="m167.39 1765.5c-5.715 7.707-4.692 20.46-13.727 21.291s-9.984-1.657-9.984-1.657c7.697-8.054 14.254-6.509 17.568-14.323-4.117 7.456-11.796 3.975-17.796 13.694 0.841-24.331 13.392-14.09 23.939-19.005z" fill="#000400"/>
  <path d="m1457.2 1818.2c7.707 5.715 20.46 4.692 21.291 13.727s-1.657 9.984-1.657 9.984c-8.054-7.697-6.509-14.254-14.323-17.568 7.456 4.118 3.975 11.796 13.694 17.796-24.331-0.842-14.09-13.393-19.005-23.939z" fill="#000400"/>
  <path d="m1509.9 528.33c5.715-7.707 4.692-20.46 13.727-21.29 9.035-0.831 9.984 1.657 9.984 1.657-7.697 8.054-14.254 6.509-17.568 14.323 4.117-7.456 11.796-3.975 17.796-13.694-0.841 24.33-13.393 14.089-23.939 19.004z" fill="#000400"/>
  <path d="m1457.2 475.65c7.707-5.715 20.46-4.692 21.291-13.727s-1.657-9.984-1.657-9.984c-8.054 7.697-6.509 14.254-14.323 17.568 7.456-4.117 3.975-11.796 13.694-17.796-24.331 0.842-14.09 13.393-19.005 23.939z" fill="#000400"/>
  <path d="m167.39 528.33c-5.715-7.707-4.692-20.46-13.727-21.29-9.035-0.831-9.984 1.657-9.984 1.657 7.697 8.054 14.254 6.509 17.568 14.323-4.117-7.456-11.796-3.975-17.796-13.694 0.841 24.33 13.392 14.089 23.939 19.004z" fill="#000400"/>
  <path d="m220.06 1818.2c-7.707 5.715-20.46 4.692-21.291 13.727s1.657 9.984 1.657 9.984c8.054-7.697 6.509-14.254 14.323-17.568-7.456 4.118-3.975 11.796-13.694 17.796 24.331-0.842 14.09-13.393 19.005-23.939z" fill="#000400"/>
  <path d="m1509.9 1765.5c5.715 7.707 4.692 20.46 13.727 21.291s9.984-1.657 9.984-1.657c-7.697-8.054-14.254-6.509-17.568-14.323 4.117 7.456 11.796 3.975 17.796 13.694-0.841-24.331-13.393-14.09-23.939-19.005z" fill="#000400"/>
  <path d="m187.17 434.89c-0.778 10.274 1.552 11.354 1.552 11.354 7.546-8.753 6.099-16.209 13.42-19.978-6.986 4.682-3.724 13.414-12.83 20.237 22.788-0.956 13.213-15.263 17.805-27.223-7.22 6.5-19.169 5.336-19.947 15.61z" fill="#000400"/>
  <path d="m126.62 1798.4c10.274 0.778 11.354-1.552 11.354-1.552-8.753-7.546-16.209-6.099-19.978-13.42 4.682 6.986 13.414 3.724 20.237 12.83-0.956-22.788-15.263-13.213-27.223-17.805 6.499 7.22 5.335 19.169 15.61 19.947z" fill="#000400"/>
  <path d="m1490.1 1858.9c0.778-10.274-1.552-11.354-1.552-11.354-7.546 8.753-6.099 16.209-13.42 19.978 6.986-4.682 3.724-13.414 12.83-20.237-22.788 0.956-13.213 15.263-17.805 27.223 7.22-6.5 19.168-5.336 19.947-15.61z" fill="#000400"/>
  <path d="m1550.7 495.44c-10.274-0.778-11.354 1.552-11.354 1.552 8.753 7.546 16.209 6.099 19.978 13.42-4.682-6.986-13.414-3.724-20.237-12.83 0.956 22.788 15.263 13.213 27.223 17.805-6.5-7.22-5.336-19.169-15.61-19.947z" fill="#000400"/>
  <path d="m1490.1 434.89c0.778 10.274-1.552 11.354-1.552 11.354-7.546-8.753-6.099-16.209-13.42-19.978 6.986 4.682 3.724 13.414 12.83 20.237-22.788-0.956-13.213-15.263-17.805-27.223 7.22 6.5 19.168 5.336 19.947 15.61z" fill="#000400"/>
  <path d="m126.62 495.44c10.274-0.778 11.354 1.552 11.354 1.552-8.753 7.546-16.209 6.099-19.978 13.42 4.682-6.986 13.414-3.724 20.237-12.83-0.956 22.788-15.263 13.213-27.223 17.805 6.499-7.22 5.335-19.169 15.61-19.947z" fill="#000400"/>
  <path d="m187.17 1858.9c-0.778-10.274 1.552-11.354 1.552-11.354 7.546 8.753 6.099 16.209 13.42 19.978-6.986-4.682-3.724-13.414-12.83-20.237 22.788 0.956 13.213 15.263 17.805 27.223-7.22-6.5-19.169-5.336-19.947-15.61z" fill="#000400"/>
  <path d="m1550.7 1798.4c-10.274 0.778-11.354-1.552-11.354-1.552 8.753-7.546 16.209-6.099 19.978-13.42-4.682 6.986-13.414 3.724-20.237 12.83 0.956-22.788 15.263-13.213 27.223-17.805-6.5 7.22-5.336 19.169-15.61 19.947z" fill="#000400"/>
  <path d="m265.65 415.52c-13.706 5.631-29.952-2.338-36.599 12.156-6.646 14.494-3.937 17.284-3.937 17.284 15.382-8.73 17.364-20.305 29.738-21.923-12.394 3.119-12.501 17.499-29.045 22.609 32.711 10.597 26.887-15.176 39.843-30.126z" fill="#000400"/>
  <path d="m107.25 1719.9c5.631 13.706-2.338 29.952 12.156 36.599 14.494 6.646 17.284 3.938 17.284 3.938-8.73-15.382-20.305-17.364-21.923-29.738 3.119 12.394 17.499 12.501 22.609 29.045 10.596-32.711-15.177-26.887-30.126-39.844z" fill="#000400"/>
  <path d="m1411.6 1878.3c13.706-5.631 29.952 2.338 36.599-12.156 6.646-14.494 3.937-17.284 3.937-17.284-15.382 8.73-17.364 20.305-29.738 21.923 12.394-3.119 12.501-17.499 29.045-22.609-32.711-10.597-26.887 15.176-39.843 30.126z" fill="#000400"/>
  <path d="m1570 573.92c-5.631-13.706 2.338-29.952-12.156-36.599-14.494-6.646-17.284-3.938-17.284-3.938 8.73 15.382 20.305 17.364 21.923 29.738-3.119-12.394-17.499-12.501-22.609-29.045-10.597 32.711 15.177 26.887 30.126 39.844z" fill="#000400"/>
  <path d="m1411.6 415.52c13.706 5.631 29.952-2.338 36.599 12.156 6.646 14.494 3.937 17.284 3.937 17.284-15.382-8.73-17.364-20.305-29.738-21.923 12.394 3.119 12.501 17.499 29.045 22.609-32.711 10.597-26.887-15.176-39.843-30.126z" fill="#000400"/>
  <path d="m107.25 573.92c5.631-13.706-2.338-29.952 12.156-36.599 14.494-6.646 17.284-3.938 17.284-3.938-8.73 15.382-20.305 17.364-21.923 29.738 3.119-12.394 17.499-12.501 22.609-29.045 10.596 32.711-15.177 26.887-30.126 39.844z" fill="#000400"/>
  <path d="m265.65 1878.3c-13.706-5.631-29.952 2.338-36.599-12.156-6.646-14.494-3.937-17.284-3.937-17.284 15.382 8.73 17.364 20.305 29.738 21.923-12.394-3.119-12.501-17.499-29.045-22.609 32.711-10.597 26.887 15.176 39.843 30.126z" fill="#000400"/>
  <path d="m1570 1719.9c-5.631 13.706 2.338 29.952-12.156 36.599-14.494 6.646-17.284 3.938-17.284 3.938 8.73-15.382 20.305-17.364 21.923-29.738-3.119 12.394-17.499 12.501-22.609 29.045-10.597-32.711 15.177-26.887 30.126-39.844z" fill="#000400"/>
 </g>
<g><text id="my-text" x="40%" y="22%" >Maryum</text></g>
<g><text x="35%" y="29%" >Weds</text></g>
<g><text id="groom"  x="50%" y="29%"  >Hassan</text></g>
<g><text x="12%" y="40%" >You are invited to attend the</text></g>
<g><text id="event"  x="66%" y="40%"  >Nikah</text></g>
<g><text id="event"  x="30%" y="49%"  >of my beloved</text></g>
<g><text id="gender" x="60%" y="49%" >son</text></g>
<g><text id="gender" x="30%" y="55%" >in</text></g>
<g><text id="venue" x="40%" y="55%" >Serena Hotel</text></g>
<g><text id="venue" x="40%" y="63%" >At</text></g>
<g><text id="time" x="49%" y="63%" >10 Pm</text></g>





</svg>
